<svg width="240" height="55" viewBox="0 0 240 55" fill="none" xmlns="http://www.w3.org/2000/svg">
<path d="M70.4826 28.1232C68.5353 26.3681 68.0548 24.0789 68.0548 22.1458C68.0548 20.7977 68.51 18.4576 70.3056 16.6517C71.4942 15.4562 73.3151 14.4896 76.4004 14.4896C77.2097 14.4896 78.3225 14.5659 79.3088 14.744C80.0675 14.8712 80.725 14.9983 81.3572 15.0492C81.5848 15.0746 81.6101 15.151 81.6101 15.2527C81.6101 15.4307 81.5596 15.6597 81.509 16.3973C81.4837 17.0586 81.4837 18.1778 81.4584 18.4576C81.4331 18.7628 81.4078 18.89 81.2814 18.89C81.1296 18.89 81.1043 18.7374 81.1043 18.4576C81.1043 17.6945 80.8009 16.8551 80.2698 16.4227C79.587 15.8123 78.019 15.2527 76.274 15.2527C73.5933 15.2527 72.3541 16.0412 71.646 16.728C70.2044 18.1524 69.8504 19.9329 69.8504 21.9932C69.8504 25.8339 72.8093 29.3695 77.0833 29.3695C78.6006 29.3695 79.764 29.1915 80.5733 28.3521C81.0032 27.9197 81.2561 27.0294 81.3067 26.6733C81.3572 26.4444 81.4078 26.3681 81.509 26.3681C81.6101 26.3681 81.6607 26.5207 81.6607 26.6733C81.6607 26.8005 81.4078 28.5556 81.2055 29.2423C81.1043 29.6239 81.0538 29.6747 80.6997 29.8274C79.8904 30.158 78.373 30.3106 77.0833 30.3106C74.0738 30.3106 72.0506 29.5476 70.4826 28.1232Z" fill="white"/>
<path d="M97.9726 24.1806C97.9726 26.1137 97.9726 27.6907 98.0738 28.5556C98.1496 29.1406 98.2508 29.573 98.8578 29.6493C99.1359 29.7002 99.5912 29.7256 99.7682 29.7256C99.8946 29.7256 99.9199 29.8019 99.9199 29.8528C99.9199 29.9545 99.8188 30.0054 99.6164 30.0054C98.5037 30.0054 97.2392 29.9545 97.138 29.9545C97.0369 29.9545 95.7724 30.0054 95.1654 30.0054C94.9631 30.0054 94.862 29.98 94.862 29.8528C94.862 29.8019 94.8873 29.7256 95.0137 29.7256C95.1907 29.7256 95.4436 29.7002 95.6207 29.6493C96.0253 29.573 96.1265 29.1406 96.2023 28.5556C96.3035 27.6907 96.3035 26.1137 96.3035 24.1806V22.044C96.3035 21.9677 96.2276 21.9423 96.177 21.9423H87.6797C87.6291 21.9423 87.5532 21.9677 87.5532 22.044V24.1806C87.5532 26.1137 87.5532 27.6907 87.6544 28.5556C87.7302 29.1406 87.8314 29.573 88.4384 29.6493C88.7165 29.7002 89.1718 29.7256 89.3488 29.7256C89.45 29.7256 89.5005 29.8019 89.5005 29.8528C89.5005 29.9545 89.3994 30.0054 89.1718 30.0054C88.0843 30.0054 86.8198 29.9545 86.7187 29.9545C86.6175 29.9545 85.353 30.0054 84.7461 30.0054C84.5437 30.0054 84.4426 29.98 84.4426 29.8528C84.4426 29.8019 84.4679 29.7256 84.5943 29.7256C84.7713 29.7256 85.0242 29.7002 85.2013 29.6493C85.6059 29.573 85.7071 29.1406 85.7829 28.5556C85.8841 27.6907 85.8841 26.1137 85.8841 24.1806V20.6196C85.8841 17.491 85.8841 16.906 85.8335 16.2701C85.8082 15.5834 85.6312 15.2527 84.9737 15.1255C84.8219 15.0746 84.4679 15.0746 84.2908 15.0746C84.215 15.0746 84.1391 15.0238 84.1391 14.9475C84.1391 14.8203 84.2403 14.7694 84.4426 14.7694C85.353 14.7694 86.6175 14.8457 86.7187 14.8457C86.8198 14.8457 88.0843 14.7694 88.6913 14.7694C88.8936 14.7694 88.9947 14.8203 88.9947 14.9475C88.9947 15.0238 88.9189 15.0746 88.843 15.0746C88.6913 15.0746 88.5901 15.0746 88.3372 15.1255C87.8061 15.2273 87.6291 15.5579 87.6038 16.2701C87.5532 16.906 87.5532 17.491 87.5532 20.6196V21.052C87.5532 21.1538 87.6291 21.1792 87.6797 21.1792H96.177C96.2276 21.1792 96.3035 21.1538 96.3035 21.052V20.6196C96.3035 17.491 96.3035 16.906 96.2529 16.2701C96.2276 15.5834 96.0506 15.2527 95.3931 15.1255C95.2413 15.0746 94.8873 15.0746 94.7102 15.0746C94.6344 15.0746 94.5585 15.0238 94.5585 14.9475C94.5585 14.8203 94.6596 14.7694 94.862 14.7694C95.7724 14.7694 97.0369 14.8457 97.138 14.8457C97.2392 14.8457 98.5037 14.7694 99.1107 14.7694C99.313 14.7694 99.4141 14.8203 99.4141 14.9475C99.4141 15.0238 99.3383 15.0746 99.2624 15.0746C99.1107 15.0746 99.0095 15.0746 98.7566 15.1255C98.2255 15.2273 98.0485 15.5579 98.0232 16.2701C97.9726 16.906 97.9726 17.491 97.9726 20.6196V24.1806Z" fill="white"/>
<path d="M104.523 20.6196C104.523 17.4911 104.523 16.906 104.472 16.2701C104.447 15.5834 104.295 15.2527 103.612 15.1255C103.46 15.0747 103.132 15.0747 102.929 15.0747C102.854 15.0747 102.778 15.0238 102.778 14.9475C102.778 14.8203 102.879 14.7694 103.106 14.7694C103.562 14.7694 104.118 14.7694 104.548 14.7949L105.357 14.8457C105.509 14.8457 109.505 14.8457 109.96 14.8203C110.339 14.7949 110.668 14.7694 110.82 14.7186C110.921 14.6931 110.997 14.6168 111.098 14.6168C111.149 14.6168 111.174 14.6931 111.174 14.7949C111.174 14.9475 111.073 15.1764 111.022 15.7614C110.997 15.9395 110.946 16.8297 110.921 17.0841C110.896 17.1858 110.87 17.313 110.769 17.313C110.668 17.313 110.617 17.1858 110.617 17.0332C110.617 16.906 110.592 16.5499 110.491 16.321C110.365 15.9903 110.162 15.7614 109.075 15.6342C108.746 15.5834 106.546 15.5579 106.318 15.5579C106.251 15.5579 106.217 15.6258 106.217 15.7614V21.3318C106.217 21.4845 106.217 21.5353 106.318 21.5353C106.596 21.5353 109.05 21.5353 109.505 21.4845C109.985 21.459 110.289 21.4082 110.466 21.2047C110.592 21.0521 110.668 20.9503 110.769 20.9503C110.82 20.9503 110.87 20.9757 110.87 21.1029C110.87 21.2301 110.769 21.5608 110.693 22.2475C110.668 22.6291 110.617 23.3921 110.617 23.5193C110.617 23.6974 110.617 23.9009 110.466 23.9009C110.365 23.9009 110.339 23.8245 110.339 23.7228C110.339 23.5193 110.339 23.3158 110.263 23.0615C110.188 22.7817 109.985 22.451 109.227 22.3493C108.67 22.2984 106.698 22.2475 106.344 22.2475C106.242 22.2475 106.217 22.3238 106.217 22.4001V24.1806C106.217 24.8674 106.192 27.2075 106.217 27.6145C106.268 29.0134 106.571 29.2678 108.544 29.2678C109.05 29.2678 109.935 29.2678 110.466 29.0389C110.972 28.8354 111.224 28.4284 111.351 27.589C111.401 27.3855 111.427 27.2838 111.528 27.2838C111.654 27.2838 111.654 27.4619 111.654 27.589C111.654 27.7671 111.503 29.1406 111.401 29.5476C111.25 30.0817 111.098 30.0817 110.314 30.0817C108.822 30.0817 107.709 30.0309 106.925 30.0054C106.141 29.98 105.661 29.9545 105.357 29.9545C105.332 29.9545 104.978 29.9545 104.573 29.98C104.169 29.98 103.713 30.0054 103.41 30.0054C103.182 30.0054 103.081 29.98 103.081 29.8528C103.081 29.8019 103.132 29.7256 103.233 29.7256C103.435 29.7256 103.663 29.7002 103.84 29.6493C104.244 29.573 104.346 29.1406 104.421 28.5556C104.523 27.6908 104.523 26.1138 104.523 24.1806V20.6196Z" fill="white"/>
<path fill-rule="evenodd" clip-rule="evenodd" d="M122.074 20.6196C122.074 17.491 122.074 16.906 122.048 16.2701C121.998 15.5834 121.846 15.2527 121.163 15.1255C121.012 15.0746 120.683 15.0746 120.48 15.0746C120.405 15.0746 120.329 15.0238 120.329 14.9475C120.329 14.8203 120.43 14.7694 120.658 14.7694C121.543 14.7694 122.807 14.8457 122.908 14.8457C123.389 14.8457 124.173 14.7694 125.109 14.7694C128.396 14.7694 129.104 16.8043 129.104 17.7963C129.104 19.4496 128.169 20.4416 127.233 21.4336C128.7 21.8914 130.698 23.3158 130.698 25.6813C130.698 27.8434 129.003 30.0817 125.589 30.0817C125.361 30.0817 124.729 30.0308 124.147 30.0054C123.566 29.98 122.984 29.9545 122.908 29.9545C122.883 29.9545 122.529 29.9545 122.124 29.98C121.72 29.98 121.264 30.0054 120.961 30.0054C120.733 30.0054 120.632 29.98 120.632 29.8528C120.632 29.8019 120.683 29.7256 120.784 29.7256C120.961 29.7256 121.214 29.7002 121.391 29.6493C121.796 29.573 121.897 29.1406 121.973 28.5556C122.074 27.6907 122.074 26.1137 122.074 24.1806V20.6196ZM123.667 21.052C123.667 21.2046 123.718 21.2301 123.819 21.2809C123.945 21.3064 124.299 21.3573 125.033 21.3573C126.171 21.3573 126.449 21.3064 126.854 20.8231C127.283 20.3398 127.587 19.6276 127.587 18.7883C127.587 17.1349 126.854 15.329 124.881 15.329C124.653 15.329 124.249 15.3544 123.92 15.4307C123.743 15.4562 123.667 15.5325 123.667 15.6597V21.052ZM123.667 23.1886C123.667 24.7402 123.667 27.2329 123.692 27.5381C123.768 28.5301 123.768 28.8099 124.375 29.1151C124.931 29.3695 125.791 29.4204 126.145 29.4204C127.233 29.4204 128.978 28.8354 128.978 26.5461C128.978 25.3507 128.573 23.5956 127.031 22.5273C126.348 22.044 125.842 21.9931 125.361 21.9423C125.109 21.8914 124.097 21.8914 123.793 21.8914C123.718 21.8914 123.667 21.9423 123.667 22.044V23.1886Z" fill="white"/>
<path d="M134.466 22.0186C134.466 19.3478 134.466 18.8646 134.415 18.3304C134.39 17.7454 134.289 17.4656 133.707 17.3893C133.555 17.3638 133.277 17.3384 133.1 17.3384C133.05 17.3384 132.974 17.2621 132.974 17.1858C132.974 17.1095 133.049 17.0586 133.252 17.0586C134.036 17.0586 135.199 17.1095 135.3 17.1095C135.401 17.1095 139.094 17.1095 139.498 17.1095C139.827 17.0841 140.156 17.0077 140.308 17.0077C140.384 16.9823 140.459 16.906 140.535 16.906C140.586 16.906 140.611 17.0077 140.611 17.0841C140.611 17.1858 140.51 17.3893 140.485 17.8726C140.459 18.0506 140.409 18.8137 140.384 19.0172C140.358 19.0935 140.308 19.1952 140.207 19.1952C140.105 19.1952 140.08 19.1189 140.08 18.9663C140.08 18.8646 140.055 18.5593 139.979 18.3558C139.852 18.076 139.675 17.9743 138.714 17.8471C138.411 17.7963 136.362 17.7708 136.16 17.7708C136.084 17.7708 136.059 17.8471 136.059 17.9743V22.629C136.059 22.7308 136.059 22.8071 136.16 22.8071C136.388 22.8071 138.714 22.8071 139.119 22.7562C139.524 22.7308 139.802 22.7053 139.979 22.5273C140.105 22.4001 140.181 22.2984 140.232 22.2984C140.308 22.2984 140.333 22.3492 140.333 22.451C140.333 22.5527 140.232 22.8325 140.207 23.3921C140.156 23.7228 140.105 24.3841 140.105 24.4858C140.105 24.6385 140.08 24.8165 139.954 24.8165C139.878 24.8165 139.827 24.7656 139.827 24.6639C139.827 24.4858 139.827 24.3078 139.751 24.1043C139.701 23.85 139.524 23.6465 138.866 23.5702C138.386 23.5193 136.489 23.4939 136.185 23.4939C136.084 23.4939 136.059 23.5447 136.059 23.5956V25.0454C136.059 25.6305 136.059 27.6144 136.059 27.9705C136.11 29.1151 136.438 29.3186 138.183 29.3186C138.639 29.3186 139.473 29.3186 139.928 29.1406C140.409 28.9625 140.636 28.6573 140.738 27.9705C140.788 27.7671 140.813 27.6907 140.915 27.6907C141.016 27.6907 141.041 27.8434 141.041 27.9705C141.041 28.0723 140.889 29.2423 140.788 29.6239C140.687 30.0563 140.51 30.0563 139.827 30.0563C138.487 30.0563 137.475 30.0054 136.742 30.0054C136.008 29.9545 135.553 29.9545 135.3 29.9545C135.25 29.9545 134.896 29.9545 134.516 29.98C134.188 30.0054 133.783 30.0054 133.505 30.0054C133.328 30.0054 133.227 29.98 133.227 29.8782C133.227 29.8273 133.277 29.7256 133.353 29.7256C133.53 29.7256 133.758 29.6747 133.909 29.6493C134.238 29.5984 134.289 29.2423 134.365 28.759C134.466 28.0468 134.466 26.6988 134.466 25.0454V22.0186Z" fill="white"/>
<path d="M155.684 25.0454C155.684 26.6987 155.709 28.0468 155.785 28.759C155.836 29.2423 155.886 29.573 156.417 29.6493C156.645 29.7001 157.05 29.7256 157.201 29.7256C157.328 29.7256 157.353 29.8273 157.353 29.8782C157.353 29.9545 157.252 30.0054 157.05 30.0054C156.089 30.0054 154.976 29.9545 154.875 29.9545C154.799 29.9545 153.661 30.0054 153.13 30.0054C152.927 30.0054 152.851 29.9799 152.851 29.8782C152.851 29.8273 152.902 29.7256 153.003 29.7256C153.155 29.7256 153.357 29.7001 153.509 29.6493C153.863 29.573 153.939 29.2423 153.989 28.7336C154.065 28.0214 154.065 26.7242 154.065 25.0708V23.3666C154.065 23.2903 154.04 23.2649 153.964 23.2649H146.63C146.554 23.2649 146.529 23.2903 146.529 23.3666V25.0708C146.529 26.7242 146.529 28.0468 146.605 28.759C146.655 29.2423 146.731 29.573 147.237 29.6493C147.49 29.7001 147.869 29.7256 148.046 29.7256C148.148 29.7256 148.173 29.8273 148.173 29.8782C148.173 29.9545 148.097 30.0054 147.895 30.0054C146.908 30.0054 145.796 29.9545 145.72 29.9545C145.619 29.9545 144.506 30.0054 143.949 30.0054C143.772 30.0054 143.671 29.9799 143.671 29.8782C143.671 29.8273 143.722 29.7256 143.823 29.7256C143.975 29.7256 144.202 29.7001 144.354 29.6493C144.683 29.573 144.733 29.2423 144.809 28.759C144.91 28.0468 144.91 26.6987 144.91 25.0454V22.0186C144.91 19.3478 144.91 18.8645 144.885 18.3304C144.835 17.7454 144.733 17.4656 144.152 17.3893C144.025 17.3638 143.722 17.3384 143.545 17.3384C143.494 17.3384 143.418 17.2621 143.418 17.1858C143.418 17.1095 143.494 17.0586 143.697 17.0586C144.506 17.0586 145.619 17.1095 145.72 17.1095C145.796 17.1095 146.908 17.0586 147.465 17.0586C147.667 17.0586 147.743 17.1095 147.743 17.1858C147.743 17.2621 147.667 17.3384 147.591 17.3384C147.49 17.3384 147.364 17.3384 147.161 17.3893C146.681 17.491 146.58 17.7199 146.529 18.3304C146.529 18.8645 146.529 19.3987 146.529 22.044V22.4255C146.529 22.5273 146.554 22.5273 146.63 22.5273H153.964C154.04 22.5273 154.065 22.5273 154.065 22.4255V22.044C154.065 19.3987 154.04 18.8645 154.04 18.3304C153.989 17.7454 153.914 17.4656 153.332 17.3893C153.18 17.3638 152.902 17.3384 152.725 17.3384C152.649 17.3384 152.599 17.2621 152.599 17.1858C152.599 17.1095 152.674 17.0586 152.877 17.0586C153.661 17.0586 154.799 17.1095 154.875 17.1095C154.976 17.1095 156.089 17.0586 156.62 17.0586C156.822 17.0586 156.923 17.1095 156.923 17.1858C156.923 17.2621 156.847 17.3384 156.771 17.3384C156.645 17.3384 156.544 17.3384 156.316 17.3893C155.861 17.491 155.76 17.7199 155.709 18.3304C155.684 18.8645 155.684 19.3478 155.684 22.0186V25.0454Z" fill="white"/>
<path fill-rule="evenodd" clip-rule="evenodd" d="M163.979 17.3892C164.207 16.8296 164.282 16.7279 164.409 16.7279C164.586 16.7279 164.636 16.9823 164.813 17.3638C165.142 18.076 167.975 25.1471 169.062 27.767C169.694 29.2931 170.175 29.5221 170.554 29.6238C170.807 29.7256 171.085 29.7256 171.262 29.7256C171.364 29.7256 171.49 29.7764 171.49 29.8782C171.49 29.9799 171.288 30.0053 171.085 30.0053C170.807 30.0053 169.517 30.0053 168.303 29.9799C167.949 29.9545 167.671 29.9545 167.671 29.8527C167.671 29.7764 167.722 29.7764 167.798 29.7256C167.899 29.7001 168.076 29.5475 167.949 29.2677L166.356 25.3506C166.331 25.2489 166.306 25.2489 166.204 25.2489H162.133C162.057 25.2489 162.006 25.2743 161.956 25.376L160.969 28.1231C160.792 28.5555 160.691 28.9625 160.691 29.2677C160.691 29.6238 160.995 29.7256 161.298 29.7256H161.45C161.602 29.7256 161.652 29.8019 161.652 29.8782C161.652 29.9799 161.551 30.0053 161.374 30.0053C160.969 30.0053 160.008 29.9545 159.806 29.9545C159.604 29.9545 158.744 30.0053 158.011 30.0053C157.783 30.0053 157.682 29.9799 157.682 29.8782C157.682 29.8019 157.758 29.7256 157.834 29.7256C157.96 29.7256 158.213 29.7255 158.365 29.7001C159.149 29.5984 159.503 28.9879 159.831 28.1231L163.979 17.3892ZM165.952 24.5112C166.027 24.5112 166.027 24.4858 166.002 24.4095L164.257 19.7039C164.156 19.4495 164.055 19.4495 163.954 19.7039L162.31 24.4095C162.293 24.4773 162.318 24.5112 162.386 24.5112H165.952Z" fill="white"/>
<path d="M175.612 27.767C176.624 25.4778 178.95 19.6276 179.33 18.4067C179.406 18.1523 179.482 17.898 179.482 17.7708C179.482 17.6182 179.431 17.4656 179.229 17.3893C179.026 17.3384 178.849 17.3384 178.647 17.3384C178.546 17.3384 178.445 17.2875 178.445 17.1858C178.445 17.1095 178.546 17.0586 178.849 17.0586C179.532 17.0586 180.341 17.1095 180.569 17.1095C180.67 17.1095 181.429 17.0586 181.935 17.0586C182.112 17.0586 182.238 17.1095 182.238 17.1858C182.238 17.2621 182.162 17.3384 182.036 17.3384C181.909 17.3384 181.505 17.3384 181.176 17.5419C180.948 17.6945 180.67 17.9488 180.19 19.1189C180.013 19.6022 179.153 21.6625 178.242 23.7482C177.155 26.2409 176.371 28.0977 175.966 28.9625C175.486 29.9799 175.385 30.2343 175.208 30.2343C175.005 30.2343 174.879 30.0054 174.55 29.1914L170.225 18.6865C169.821 17.7199 169.593 17.5419 168.986 17.3893C168.708 17.3384 168.43 17.3384 168.329 17.3384C168.228 17.3384 168.177 17.2366 168.177 17.1858C168.177 17.084 168.354 17.0586 168.632 17.0586C169.492 17.0586 170.478 17.1095 170.706 17.1095C170.883 17.1095 171.667 17.0586 172.35 17.0586C172.67 17.0586 172.83 17.101 172.83 17.1858C172.83 17.2621 172.78 17.3384 172.653 17.3384C172.451 17.3384 172.173 17.3638 171.996 17.4147C171.819 17.491 171.793 17.5927 171.793 17.7199C171.793 17.9488 172.021 18.4576 172.274 19.1443L175.612 27.767Z" fill="white"/>
<path d="M185.829 25.0454C185.829 26.6987 185.829 28.0468 185.93 28.759C185.981 29.2423 186.032 29.573 186.563 29.6493C186.816 29.7001 187.195 29.7256 187.372 29.7256C187.473 29.7256 187.498 29.8273 187.498 29.8782C187.498 29.9545 187.423 30.0054 187.22 30.0054C186.234 30.0054 185.096 29.9545 185.02 29.9545C184.919 29.9545 183.806 30.0054 183.275 30.0054C183.098 30.0054 182.997 29.9799 182.997 29.8782C182.997 29.8273 183.047 29.7256 183.149 29.7256C183.3 29.7256 183.528 29.7001 183.68 29.6493C184.008 29.573 184.084 29.2423 184.135 28.759C184.211 28.0468 184.236 26.6987 184.236 25.0454V22.0186C184.236 19.3478 184.236 18.8645 184.211 18.3304C184.16 17.7454 184.008 17.491 183.629 17.3893C183.427 17.3638 183.224 17.3384 183.098 17.3384C183.022 17.3384 182.946 17.2621 182.946 17.1858C182.946 17.1095 183.047 17.0586 183.224 17.0586C183.806 17.0586 184.919 17.1095 185.02 17.1095C185.096 17.1095 186.234 17.0586 186.79 17.0586C186.993 17.0586 187.069 17.1095 187.069 17.1858C187.069 17.2621 186.993 17.3384 186.917 17.3384C186.816 17.3384 186.689 17.3384 186.487 17.3893C186.006 17.491 185.905 17.7199 185.855 18.3304C185.829 18.8645 185.829 19.3478 185.829 22.0186V25.0454Z" fill="white"/>
<path fill-rule="evenodd" clip-rule="evenodd" d="M196.148 16.8043C200.118 16.8043 203.127 19.2462 203.127 23.2396C203.127 27.0803 200.295 30.2344 196.046 30.2344C191.216 30.2344 189.168 26.5971 189.168 23.5194C189.168 20.7469 191.267 16.8043 196.148 16.8043ZM196.552 29.5222C198.145 29.5222 201.307 28.6828 201.307 23.7228C201.307 19.6277 198.828 17.4657 196.046 17.4657C193.113 17.4657 190.988 19.3225 190.988 23.0361C190.988 27.0295 193.366 29.5222 196.552 29.5222Z" fill="white"/>
<path fill-rule="evenodd" clip-rule="evenodd" d="M206.213 22.0186C206.213 19.3478 206.213 18.8645 206.188 18.3304C206.137 17.7454 206.036 17.4656 205.454 17.3893C205.328 17.3638 205.024 17.3384 204.847 17.3384C204.797 17.3384 204.721 17.2621 204.721 17.1858C204.721 17.1095 204.797 17.0586 204.999 17.0586C205.808 17.0586 206.972 17.1095 207.073 17.1095C207.25 17.1095 208.742 17.0586 209.273 17.0586C210.411 17.0586 211.65 17.1603 212.561 17.7962C213.016 18.1269 213.8 18.9408 213.8 20.1363C213.8 21.4081 213.269 22.629 211.625 24.0534C213.066 25.8594 214.306 27.4109 215.317 28.4792C216.253 29.4458 216.835 29.6238 217.29 29.6747C217.619 29.7256 217.796 29.7256 217.897 29.7256C217.998 29.7256 218.074 29.8273 218.074 29.8782C218.074 29.9799 217.947 30.0054 217.644 30.0054H216.531C215.545 30.0054 215.09 29.9036 214.66 29.6747C213.901 29.2677 213.243 28.4538 212.257 27.1566C211.498 26.2154 210.714 25.1217 210.335 24.6639C210.259 24.5876 210.234 24.5621 210.107 24.5621L207.857 24.5113C207.781 24.5113 207.73 24.5621 207.73 24.6639V25.0708C207.73 26.7242 207.73 28.0468 207.831 28.759C207.882 29.2423 207.983 29.573 208.514 29.6493C208.767 29.7001 209.146 29.7256 209.298 29.7256C209.425 29.7256 209.45 29.8273 209.45 29.8782C209.45 29.9545 209.374 30.0054 209.172 30.0054C208.211 30.0054 207.073 29.9545 206.997 29.9545C206.972 29.9545 205.808 30.0054 205.252 30.0054C205.075 30.0054 204.974 29.9799 204.974 29.8782C204.974 29.8273 205.024 29.7256 205.125 29.7256C205.277 29.7256 205.505 29.7001 205.656 29.6493C206.011 29.573 206.036 29.2423 206.112 28.759C206.213 28.0468 206.213 26.6987 206.213 25.0454V22.0186ZM207.73 23.4684C207.73 23.5701 207.781 23.621 207.857 23.6973C208.11 23.8245 209.02 23.9517 209.804 23.9517C210.234 23.9517 210.714 23.9262 211.119 23.6464C211.726 23.2395 212.181 22.3492 212.181 21.0266C212.181 18.89 211.018 17.6691 209.146 17.6691C208.615 17.6691 208.059 17.7199 207.882 17.7708C207.806 17.7962 207.73 17.8725 207.73 17.9743V23.4684Z" fill="white"/>
<path fill-rule="evenodd" clip-rule="evenodd" d="M221.867 17.3892C222.095 16.8296 222.171 16.7279 222.297 16.7279C222.474 16.7279 222.55 16.9823 222.727 17.3638C223.031 18.076 225.863 25.1471 226.951 27.767C227.583 29.2931 228.063 29.5221 228.443 29.6238C228.721 29.7256 228.974 29.7256 229.151 29.7256C229.252 29.7256 229.378 29.7764 229.378 29.8782C229.378 29.9799 229.176 30.0053 228.974 30.0053C228.721 30.0053 227.406 30.0053 226.192 29.9799C225.838 29.9545 225.56 29.9545 225.56 29.8527C225.56 29.7764 225.61 29.7764 225.686 29.7256C225.787 29.7001 225.964 29.5475 225.838 29.2677L224.27 25.3506C224.219 25.2489 224.194 25.2489 224.093 25.2489H220.046C219.945 25.2489 219.895 25.2743 219.844 25.376L218.858 28.1231C218.706 28.5555 218.605 28.9625 218.605 29.2677C218.605 29.6238 218.883 29.7256 219.187 29.7256H219.364C219.49 29.7256 219.541 29.8019 219.541 29.8782C219.541 29.9799 219.439 30.0053 219.288 30.0053C218.858 30.0053 217.897 29.9545 217.694 29.9545C217.517 29.9545 216.632 30.0053 215.899 30.0053C215.697 30.0053 215.57 29.9799 215.57 29.8782C215.57 29.8019 215.646 29.7256 215.722 29.7256C215.848 29.7256 216.101 29.7255 216.253 29.7001C217.062 29.5984 217.391 28.9879 217.72 28.1231L221.867 17.3892ZM223.84 24.5112C223.916 24.5112 223.916 24.4858 223.916 24.4095L222.171 19.7039C222.07 19.4495 221.968 19.4495 221.867 19.7039L220.223 24.4095C220.207 24.4773 220.223 24.5112 220.274 24.5112H223.84Z" fill="white"/>
<path d="M232.717 25.0708C232.717 27.589 232.742 28.6318 233.071 28.9371C233.349 29.2169 234.032 29.3186 235.423 29.3186C236.333 29.3186 237.117 29.3186 237.547 28.8099C237.749 28.5555 237.901 28.174 237.952 27.8433C237.977 27.7162 238.027 27.6144 238.129 27.6144C238.23 27.6144 238.255 27.6907 238.255 27.8688C238.255 28.0723 238.129 29.0897 238.002 29.5984C237.876 30.0054 237.825 30.0562 236.889 30.0562C235.625 30.0562 234.639 30.0308 233.804 30.0054C233.02 29.9799 232.413 29.9545 231.882 29.9545C231.806 29.9545 231.503 29.9545 231.174 29.9799C230.795 30.0054 230.415 30.0054 230.137 30.0054C229.96 30.0054 229.859 29.9799 229.859 29.8782C229.859 29.8273 229.909 29.7256 230.011 29.7256C230.162 29.7256 230.39 29.7001 230.542 29.6493C230.896 29.573 230.921 29.2423 230.997 28.759C231.098 28.0468 231.098 26.6987 231.098 25.0454V22.0186C231.098 19.3478 231.098 18.8645 231.073 18.3304C231.022 17.7454 230.921 17.4656 230.339 17.3893C230.213 17.3638 229.909 17.3384 229.732 17.3384C229.682 17.3384 229.606 17.2621 229.606 17.1858C229.606 17.1095 229.682 17.0586 229.884 17.0586C230.693 17.0586 231.781 17.1095 231.882 17.1095C231.958 17.1095 233.298 17.0586 233.829 17.0586C234.006 17.0586 234.108 17.1095 234.108 17.1858C234.108 17.2621 234.032 17.313 233.981 17.313C233.855 17.313 233.602 17.3384 233.399 17.3638C232.868 17.4656 232.767 17.7199 232.742 18.3304C232.717 18.8645 232.717 19.3478 232.717 22.0186V25.0708Z" fill="white"/>
<path d="M109.252 38.3992C109.252 39.0097 109.252 39.4929 109.277 39.7727C109.302 39.9508 109.353 40.1034 109.53 40.1288C109.631 40.1288 109.758 40.1288 109.808 40.1288C109.859 40.1288 109.859 40.1543 109.859 40.1797C109.859 40.2136 109.825 40.2306 109.758 40.2306C109.429 40.2306 109.024 40.2051 108.974 40.2051C108.948 40.2051 108.569 40.2306 108.367 40.2306C108.299 40.2306 108.266 40.2136 108.266 40.1797C108.266 40.1543 108.266 40.1288 108.316 40.1288C108.367 40.1288 108.443 40.1288 108.493 40.1288C108.645 40.1034 108.67 39.9508 108.695 39.7727C108.721 39.4929 108.721 39.0097 108.721 38.3992V37.7124C108.721 37.6955 108.712 37.687 108.695 37.687H105.989C105.989 37.687 105.964 37.687 105.964 37.7124V38.3992C105.964 39.0097 105.964 39.4929 105.989 39.7727C106.015 39.9508 106.04 40.1034 106.242 40.1288C106.318 40.1288 106.47 40.1288 106.521 40.1288C106.571 40.1288 106.571 40.1543 106.571 40.1797C106.571 40.2136 106.537 40.2306 106.47 40.2306C106.141 40.2306 105.737 40.2051 105.686 40.2051C105.661 40.2051 105.256 40.2306 105.079 40.2306C105.012 40.2306 104.978 40.2136 104.978 40.1797C104.978 40.1543 105.003 40.1288 105.028 40.1288C105.079 40.1288 105.155 40.1288 105.205 40.1288C105.357 40.1034 105.383 39.9508 105.408 39.7727C105.433 39.4929 105.433 39.0097 105.433 38.3992V37.28C105.433 36.288 105.433 36.11 105.408 35.9065C105.408 35.6776 105.357 35.5758 105.155 35.525C105.104 35.525 105.003 35.525 104.927 35.525C104.902 35.525 104.877 35.4995 104.877 35.4741C104.877 35.4487 104.902 35.4232 104.978 35.4232C105.256 35.4232 105.661 35.4487 105.686 35.4487C105.737 35.4487 106.141 35.4232 106.318 35.4232C106.394 35.4232 106.419 35.4487 106.419 35.4741C106.419 35.491 106.411 35.508 106.394 35.525C106.318 35.525 106.293 35.525 106.217 35.525C106.04 35.5758 105.989 35.6776 105.989 35.9065C105.964 36.11 105.964 36.288 105.964 37.28V37.4072C105.964 37.4326 105.989 37.4326 105.989 37.4326H108.695C108.712 37.4326 108.721 37.4242 108.721 37.4072V37.28C108.721 36.288 108.721 36.11 108.721 35.9065C108.695 35.6776 108.645 35.5758 108.443 35.525C108.392 35.525 108.266 35.525 108.215 35.525C108.19 35.525 108.164 35.4995 108.164 35.4741C108.164 35.4487 108.19 35.4232 108.266 35.4232C108.569 35.4232 108.948 35.4487 108.974 35.4487C109.024 35.4487 109.429 35.4232 109.606 35.4232C109.673 35.4232 109.707 35.4402 109.707 35.4741C109.707 35.4995 109.682 35.525 109.656 35.525C109.606 35.525 109.581 35.525 109.505 35.525C109.328 35.5758 109.277 35.6776 109.277 35.9065C109.252 36.11 109.252 36.288 109.252 37.28V38.3992Z" fill="white"/>
<path d="M114.032 37.28C114.032 36.288 114.032 36.1099 114.032 35.9065C114.006 35.6775 113.956 35.5758 113.753 35.5249C113.703 35.5249 113.602 35.5249 113.551 35.5249C113.501 35.5249 113.475 35.4995 113.475 35.4741C113.475 35.4486 113.526 35.4232 113.576 35.4232C113.728 35.4232 113.905 35.4232 114.032 35.4232L114.31 35.4486C114.335 35.4486 115.6 35.4486 115.751 35.4486C115.878 35.4232 115.979 35.4232 116.03 35.3977C116.055 35.3977 116.08 35.3723 116.105 35.3723C116.122 35.3893 116.131 35.4062 116.131 35.4232C116.131 35.4741 116.105 35.5504 116.08 35.7284C116.08 35.7793 116.055 36.0845 116.055 36.1354C116.055 36.1693 116.046 36.1947 116.03 36.2117C115.979 36.2117 115.954 36.1863 115.954 36.1354C115.954 36.0845 115.954 35.9828 115.928 35.9065C115.878 35.8047 115.827 35.7284 115.473 35.703C115.372 35.6775 114.664 35.6775 114.613 35.6775C114.58 35.6775 114.563 35.6945 114.563 35.7284V37.4835C114.563 37.5343 114.563 37.5598 114.613 37.5598C114.689 37.5598 115.473 37.5598 115.6 37.5343C115.751 37.5343 115.853 37.5089 115.903 37.458C115.954 37.4072 115.987 37.3733 116.004 37.3563C116.021 37.3563 116.03 37.3817 116.03 37.4326C116.03 37.458 116.004 37.5598 115.979 37.7887C115.979 37.9159 115.954 38.1448 115.954 38.1702C115.954 38.2465 115.954 38.2974 115.903 38.2974C115.878 38.2974 115.878 38.272 115.878 38.2465C115.878 38.1702 115.878 38.1194 115.853 38.0431C115.827 37.9413 115.751 37.8396 115.524 37.8141C115.347 37.7887 114.714 37.7887 114.613 37.7887C114.58 37.7887 114.563 37.8057 114.563 37.8396V38.3992C114.563 38.6026 114.563 39.3403 114.563 39.4675C114.588 39.9253 114.689 40.0016 115.296 40.0016C115.473 40.0016 115.751 40.0016 115.903 39.9253C116.08 39.849 116.156 39.7218 116.181 39.4675C116.207 39.3911 116.207 39.3657 116.257 39.3657C116.282 39.3657 116.282 39.4166 116.282 39.4675C116.282 39.5183 116.232 39.9507 116.207 40.0779C116.156 40.256 116.105 40.256 115.853 40.256C115.397 40.256 115.043 40.2305 114.79 40.2305C114.537 40.2305 114.386 40.2051 114.31 40.2051C114.285 40.2051 114.183 40.2051 114.057 40.2305C113.93 40.2305 113.779 40.2305 113.678 40.2305C113.602 40.2305 113.576 40.2305 113.576 40.1797C113.576 40.1542 113.602 40.1288 113.627 40.1288C113.678 40.1288 113.753 40.1288 113.829 40.1288C113.956 40.1033 113.981 39.9507 114.006 39.7727C114.032 39.4929 114.032 39.0096 114.032 38.3992V37.28Z" fill="white"/>
<path fill-rule="evenodd" clip-rule="evenodd" d="M121.34 35.5758C121.416 35.3723 121.442 35.3214 121.467 35.3214C121.517 35.3214 121.543 35.3723 121.619 35.5758C121.694 35.8047 122.706 38.4246 123.085 39.3911C123.313 39.9761 123.49 40.0779 123.616 40.1033C123.718 40.1288 123.819 40.1288 123.895 40.1288C123.92 40.1288 123.945 40.1542 123.945 40.1796C123.945 40.2305 123.895 40.2305 123.819 40.2305C123.718 40.2305 123.262 40.2305 122.832 40.2305C122.706 40.2051 122.63 40.2051 122.63 40.1796C122.63 40.1542 122.655 40.1288 122.681 40.1288C122.706 40.1288 122.757 40.0525 122.706 39.9507L122.124 38.3991C122.124 38.3737 122.099 38.3483 122.074 38.3483H120.708C120.674 38.3483 120.658 38.3652 120.658 38.3991L120.278 39.5437C120.202 39.6964 120.177 39.849 120.177 39.9507C120.177 40.0779 120.303 40.1288 120.43 40.1288H120.481C120.531 40.1457 120.556 40.1627 120.556 40.1796C120.556 40.2305 120.506 40.2305 120.455 40.2305C120.303 40.2305 120.025 40.2051 119.949 40.2051C119.899 40.2051 119.545 40.2305 119.241 40.2305C119.157 40.2305 119.115 40.2135 119.115 40.1796C119.132 40.1627 119.157 40.1457 119.191 40.1288C119.241 40.1288 119.317 40.1288 119.368 40.1288C119.646 40.1033 119.798 39.849 119.899 39.5437L121.34 35.5758ZM121.998 38.1193C122.023 38.1193 122.023 38.0939 122.023 38.0685L121.416 36.3388C121.383 36.2541 121.349 36.2541 121.315 36.3388L120.784 38.0685C120.759 38.0939 120.784 38.1193 120.784 38.1193H121.998Z" fill="white"/>
<path d="M127.916 38.3992C127.916 39.3403 127.941 39.7473 128.042 39.849C128.143 39.9508 128.32 40.0016 128.801 40.0016C129.155 40.0016 129.433 40.0016 129.585 39.8236C129.661 39.7219 129.737 39.5438 129.737 39.4421C129.762 39.3912 129.762 39.3403 129.787 39.3403C129.838 39.3403 129.838 39.3658 129.838 39.4421C129.838 39.5184 129.787 39.8999 129.737 40.078C129.686 40.2306 129.686 40.256 129.332 40.256C128.877 40.256 128.548 40.2306 128.295 40.2306C128.042 40.2306 127.84 40.2051 127.638 40.2051C127.553 40.2221 127.469 40.2306 127.385 40.2306C127.258 40.2306 127.132 40.2306 127.031 40.2306C126.963 40.2306 126.929 40.2136 126.929 40.1797C126.929 40.1543 126.955 40.1288 126.98 40.1288C127.031 40.1288 127.106 40.1288 127.157 40.1288C127.283 40.1034 127.334 39.9508 127.359 39.7727C127.385 39.4929 127.385 39.0097 127.385 38.3992V37.28C127.385 36.288 127.385 36.11 127.359 35.9065C127.359 35.6776 127.309 35.5758 127.106 35.525C127.056 35.525 126.955 35.525 126.879 35.525C126.845 35.508 126.828 35.491 126.828 35.4741C126.828 35.4402 126.862 35.4232 126.929 35.4232C127.208 35.4232 127.612 35.4487 127.638 35.4487C127.688 35.4487 128.143 35.4232 128.346 35.4232C128.396 35.4232 128.422 35.4487 128.422 35.4741C128.422 35.4995 128.396 35.525 128.371 35.525C128.346 35.525 128.244 35.525 128.169 35.525C127.992 35.5758 127.941 35.6776 127.916 35.9065C127.916 36.11 127.916 36.288 127.916 37.28V38.3992Z" fill="white"/>
<path d="M134.618 38.3991C134.618 39.0096 134.618 39.4929 134.668 39.7727C134.668 39.9507 134.719 40.1033 134.896 40.1288C134.997 40.1288 135.123 40.1288 135.199 40.1288C135.224 40.1288 135.25 40.1542 135.25 40.1796C135.25 40.2135 135.216 40.2305 135.149 40.2305C134.795 40.2305 134.39 40.2051 134.365 40.2051C134.339 40.2051 133.935 40.2305 133.732 40.2305C133.665 40.2305 133.631 40.2135 133.631 40.1796C133.631 40.1542 133.657 40.1288 133.682 40.1288C133.758 40.1288 133.834 40.1288 133.884 40.1288C134.011 40.1033 134.036 39.9507 134.061 39.7727C134.086 39.4929 134.086 39.0096 134.086 38.3991V35.7029H133.176C132.771 35.7284 132.62 35.7538 132.518 35.9064C132.443 36.0336 132.417 36.059 132.417 36.1099C132.392 36.1608 132.367 36.1862 132.341 36.1862C132.325 36.1693 132.316 36.1438 132.316 36.1099C132.316 36.059 132.443 35.4995 132.443 35.4486C132.468 35.4232 132.493 35.3214 132.518 35.3214C132.569 35.3214 132.62 35.3977 132.797 35.3977C132.974 35.4232 133.227 35.4486 133.302 35.4486H135.654C135.857 35.4486 136.008 35.4232 136.11 35.3977C136.211 35.3977 136.261 35.3723 136.287 35.3723C136.312 35.3723 136.312 35.4232 136.312 35.4486C136.312 35.6521 136.312 36.0845 136.312 36.1608C136.312 36.2117 136.287 36.2371 136.261 36.2371C136.236 36.2371 136.211 36.2117 136.211 36.1354V36.059C136.186 35.881 136.034 35.7284 135.427 35.7029H134.618V38.3991Z" fill="white"/>
<path d="M144 38.3992C144 39.0097 144 39.4929 144.025 39.7727C144.051 39.9508 144.076 40.1034 144.278 40.1288C144.379 40.1288 144.506 40.1288 144.556 40.1288C144.607 40.1288 144.607 40.1543 144.607 40.1797C144.607 40.2136 144.573 40.2306 144.506 40.2306C144.152 40.2306 143.772 40.2051 143.722 40.2051C143.697 40.2051 143.317 40.2306 143.115 40.2306C143.047 40.2306 143.014 40.2136 143.014 40.1797C143.014 40.1543 143.014 40.1288 143.064 40.1288C143.115 40.1288 143.191 40.1288 143.241 40.1288C143.368 40.1034 143.418 39.9508 143.444 39.7727C143.469 39.4929 143.469 39.0097 143.469 38.3992V37.7124C143.469 37.687 143.444 37.687 143.418 37.687H140.738C140.721 37.687 140.712 37.6955 140.712 37.7124V38.3992C140.712 39.0097 140.712 39.4929 140.738 39.7727C140.763 39.9508 140.788 40.1034 140.991 40.1288C141.066 40.1288 141.218 40.1288 141.269 40.1288C141.319 40.1288 141.319 40.1543 141.319 40.1797C141.319 40.2136 141.286 40.2306 141.218 40.2306C140.864 40.2306 140.485 40.2051 140.434 40.2051C140.409 40.2051 140.004 40.2306 139.827 40.2306C139.751 40.2306 139.726 40.2306 139.726 40.1797C139.726 40.1543 139.726 40.1288 139.777 40.1288C139.827 40.1288 139.903 40.1288 139.954 40.1288C140.08 40.1034 140.131 39.9508 140.156 39.7727C140.181 39.4929 140.181 39.0097 140.181 38.3992V37.28C140.181 36.288 140.181 36.11 140.156 35.9065C140.156 35.6776 140.105 35.5758 139.903 35.525C139.852 35.525 139.726 35.525 139.675 35.525C139.65 35.525 139.625 35.4995 139.625 35.4741C139.625 35.4487 139.65 35.4232 139.726 35.4232C140.004 35.4232 140.409 35.4487 140.434 35.4487C140.485 35.4487 140.864 35.4232 141.066 35.4232C141.142 35.4232 141.168 35.4487 141.168 35.4741C141.168 35.4995 141.142 35.525 141.117 35.525C141.066 35.525 141.041 35.525 140.965 35.525C140.788 35.5758 140.738 35.6776 140.712 35.9065C140.712 36.11 140.712 36.288 140.712 37.28V37.4072C140.712 37.4242 140.721 37.4326 140.738 37.4326H143.418C143.444 37.4326 143.469 37.4326 143.469 37.4072V37.28C143.469 36.288 143.469 36.11 143.469 35.9065C143.444 35.6776 143.393 35.5758 143.191 35.525C143.14 35.525 143.014 35.525 142.963 35.525C142.929 35.508 142.913 35.491 142.913 35.4741C142.913 35.4402 142.946 35.4232 143.014 35.4232C143.317 35.4232 143.697 35.4487 143.722 35.4487C143.772 35.4487 144.152 35.4232 144.354 35.4232C144.43 35.4232 144.455 35.4487 144.455 35.4741C144.455 35.508 144.438 35.525 144.405 35.525C144.354 35.525 144.329 35.525 144.253 35.525C144.076 35.5758 144.025 35.6776 144 35.9065C144 36.11 144 36.288 144 37.28V38.3992Z" fill="white"/>
<path d="M152.953 40.1542C152.877 40.1033 152.877 40.0779 152.877 39.8998C152.877 39.5946 152.902 39.3403 152.902 39.2385C152.902 39.1622 152.927 39.1368 152.953 39.1368C152.978 39.1368 153.003 39.1622 153.003 39.2131C153.003 39.2639 153.003 39.3403 153.003 39.442C153.104 39.8998 153.534 40.0779 153.964 40.0779C154.571 40.0779 154.849 39.6455 154.849 39.2385C154.849 38.8061 154.672 38.5517 154.116 38.0939L153.838 37.865C153.18 37.3054 153.028 36.9239 153.028 36.466C153.028 35.8047 153.534 35.3214 154.318 35.3214C154.571 35.3214 154.748 35.3723 154.925 35.3977C155.052 35.4232 155.077 35.4232 155.128 35.4232C155.203 35.4232 155.203 35.4486 155.203 35.474C155.203 35.4995 155.178 35.7284 155.178 36.1354C155.178 36.2625 155.178 36.288 155.128 36.288C155.102 36.288 155.077 36.2625 155.077 36.2117C155.077 36.1354 155.052 35.9573 155.001 35.9064C154.976 35.8301 154.799 35.5503 154.217 35.5503C153.762 35.5503 153.433 35.8301 153.433 36.288C153.433 36.6695 153.61 36.873 154.217 37.3563L154.369 37.5089C155.128 38.0939 155.305 38.5009 155.305 39.0096C155.305 39.2639 155.203 39.7472 154.773 40.0525C154.495 40.2559 154.166 40.3322 153.812 40.3322C153.509 40.3322 153.231 40.2814 152.953 40.1542Z" fill="white"/>
<path d="M159.503 37.28C159.503 36.288 159.503 36.1099 159.503 35.9065C159.477 35.6775 159.427 35.5758 159.224 35.5249C159.174 35.5249 159.073 35.5249 158.997 35.5249C158.972 35.5249 158.946 35.4995 158.946 35.4741C158.946 35.4486 158.997 35.4232 159.047 35.4232C159.199 35.4232 159.376 35.4232 159.503 35.4232L159.781 35.4486C159.806 35.4486 161.071 35.4486 161.222 35.4486C161.349 35.4232 161.45 35.4232 161.501 35.3977C161.526 35.3977 161.551 35.3723 161.576 35.3723C161.602 35.3723 161.602 35.3977 161.602 35.4232C161.602 35.4741 161.576 35.5504 161.551 35.7284C161.551 35.7793 161.526 36.0845 161.526 36.1354C161.526 36.1863 161.501 36.2117 161.475 36.2117C161.45 36.2117 161.425 36.1863 161.425 36.1354C161.425 36.0845 161.425 35.9828 161.399 35.9065C161.349 35.8047 161.273 35.7284 160.944 35.703C160.843 35.6775 160.135 35.6775 160.084 35.6775C160.051 35.6775 160.034 35.6945 160.034 35.7284V37.4835C160.034 37.5343 160.034 37.5598 160.084 37.5598C160.16 37.5598 160.944 37.5598 161.071 37.5343C161.248 37.5343 161.323 37.5089 161.374 37.458C161.425 37.4072 161.45 37.3563 161.475 37.3563C161.492 37.3733 161.501 37.3987 161.501 37.4326C161.501 37.458 161.475 37.5598 161.45 37.7887C161.45 37.9159 161.425 38.1448 161.425 38.1702C161.425 38.2465 161.425 38.2974 161.399 38.2974C161.349 38.2974 161.349 38.272 161.349 38.2465C161.349 38.1702 161.349 38.1194 161.323 38.0431C161.298 37.9413 161.248 37.8396 160.995 37.8141C160.818 37.7887 160.185 37.7887 160.084 37.7887C160.051 37.7887 160.034 37.8057 160.034 37.8396V38.3992C160.034 38.6026 160.034 39.3403 160.034 39.4675C160.059 39.9253 160.16 40.0016 160.767 40.0016C160.944 40.0016 161.222 40.0016 161.374 39.9253C161.551 39.849 161.627 39.7218 161.652 39.4675C161.678 39.3911 161.678 39.3657 161.728 39.3657C161.753 39.3657 161.753 39.4166 161.753 39.4675C161.753 39.5183 161.703 39.9507 161.678 40.0779C161.627 40.256 161.576 40.256 161.323 40.256C160.868 40.256 160.514 40.2305 160.261 40.2305C160.034 40.2305 159.857 40.2051 159.781 40.2051C159.696 40.2051 159.612 40.2136 159.528 40.2305C159.401 40.2305 159.25 40.2305 159.149 40.2305C159.081 40.2305 159.047 40.2136 159.047 40.1797C159.047 40.1542 159.073 40.1288 159.098 40.1288C159.149 40.1288 159.224 40.1288 159.3 40.1288C159.427 40.1033 159.452 39.9507 159.477 39.7727C159.503 39.4929 159.503 39.0096 159.503 38.3992V37.28Z" fill="white"/>
<path fill-rule="evenodd" clip-rule="evenodd" d="M165.901 37.28C165.901 36.288 165.901 36.11 165.876 35.9065C165.876 35.6776 165.825 35.5758 165.597 35.525C165.547 35.525 165.446 35.525 165.395 35.525C165.361 35.508 165.345 35.491 165.345 35.4741C165.345 35.4487 165.37 35.4232 165.446 35.4232C165.724 35.4232 166.129 35.4487 166.154 35.4487C166.23 35.4487 166.71 35.4232 166.913 35.4232C167.292 35.4232 167.722 35.4741 168.051 35.703C168.228 35.8048 168.506 36.1354 168.506 36.5678C168.506 37.0257 168.303 37.509 167.722 38.0431C168.253 38.7044 168.683 39.264 169.037 39.671C169.391 40.0271 169.669 40.1034 169.821 40.1288C169.947 40.1288 170.023 40.1288 170.074 40.1288C170.099 40.1288 170.124 40.1543 170.124 40.1797C170.124 40.2306 170.074 40.2306 169.973 40.2306H169.517C169.163 40.2306 169.012 40.2051 168.835 40.1034C168.582 39.9762 168.354 39.6455 168 39.1877C167.722 38.8316 167.418 38.3992 167.292 38.2466C167.267 38.2211 167.267 38.1957 167.216 38.1957L166.432 38.1703C166.415 38.1872 166.407 38.2127 166.407 38.2466V38.3992C166.407 39.0097 166.407 39.4929 166.432 39.7727C166.457 39.9508 166.483 40.1034 166.685 40.1288C166.761 40.1288 166.913 40.1288 166.963 40.1288C166.988 40.1288 167.014 40.1543 167.014 40.1797C167.014 40.2136 166.98 40.2306 166.913 40.2306C166.558 40.2306 166.179 40.2051 166.129 40.2051C166.129 40.2051 165.724 40.2306 165.547 40.2306C165.479 40.2306 165.446 40.2136 165.446 40.1797C165.446 40.1543 165.446 40.1288 165.496 40.1288C165.547 40.1288 165.623 40.1288 165.673 40.1288C165.8 40.1034 165.85 39.9508 165.876 39.7727C165.901 39.4929 165.901 39.0097 165.901 38.3992V37.28ZM166.407 37.8142C166.407 37.8481 166.415 37.8735 166.432 37.8905C166.533 37.9668 166.837 37.9922 167.115 37.9922C167.267 37.9922 167.444 37.9922 167.57 37.8905C167.798 37.7379 167.975 37.3818 167.975 36.8985C167.975 36.11 167.545 35.6267 166.887 35.6267C166.685 35.6267 166.508 35.6521 166.457 35.6521C166.424 35.6691 166.407 35.703 166.407 35.7539V37.8142Z" fill="white"/>
<path d="M174.398 39.4675C174.778 38.6027 175.638 36.3898 175.764 35.9319C175.789 35.8302 175.815 35.7539 175.815 35.6776C175.815 35.6267 175.815 35.5758 175.739 35.5504C175.663 35.525 175.562 35.525 175.486 35.525C175.461 35.525 175.435 35.4995 175.435 35.4741C175.435 35.4487 175.461 35.4232 175.562 35.4232C175.815 35.4232 176.118 35.4487 176.194 35.4487C176.219 35.4487 176.497 35.4232 176.674 35.4232C176.742 35.4232 176.784 35.4402 176.801 35.4741C176.801 35.508 176.767 35.525 176.7 35.525C176.674 35.525 176.523 35.525 176.396 35.6013C176.32 35.6521 176.219 35.7539 176.067 36.1863C175.992 36.3643 175.688 37.1274 175.359 37.9159C174.98 38.8316 174.677 39.5184 174.525 39.849C174.348 40.2306 174.348 40.3323 174.272 40.3323C174.196 40.3323 174.171 40.2306 174.044 39.9253L172.502 36.0337C172.35 35.6776 172.249 35.6013 172.046 35.5504C171.945 35.525 171.844 35.525 171.794 35.525C171.768 35.525 171.743 35.4995 171.743 35.4741C171.743 35.4232 171.819 35.4232 171.92 35.4232C172.223 35.4232 172.577 35.4487 172.653 35.4487C172.729 35.4487 173.007 35.4232 173.235 35.4232C173.353 35.4232 173.412 35.4402 173.412 35.4741C173.412 35.508 173.395 35.525 173.361 35.525C173.286 35.525 173.159 35.525 173.109 35.5504C173.033 35.5758 173.033 35.6267 173.033 35.6776C173.033 35.7539 173.109 35.9574 173.21 36.2117L174.398 39.4675Z" fill="white"/>
<path d="M180.797 38.3992C180.797 39.0097 180.797 39.4929 180.822 39.7727C180.847 39.9508 180.873 40.1034 181.075 40.1288C181.151 40.1288 181.302 40.1288 181.353 40.1288C181.404 40.1288 181.404 40.1543 181.404 40.1797C181.404 40.2136 181.37 40.2306 181.302 40.2306C180.948 40.2306 180.569 40.2051 180.518 40.2051C180.493 40.2051 180.089 40.2306 179.912 40.2306C179.844 40.2306 179.81 40.2136 179.81 40.1797C179.81 40.1543 179.81 40.1288 179.861 40.1288C179.912 40.1288 179.987 40.1288 180.038 40.1288C180.164 40.1034 180.215 39.9508 180.24 39.7727C180.266 39.4929 180.266 39.0097 180.266 38.3992V37.28C180.266 36.288 180.266 36.11 180.24 35.9065C180.24 35.6776 180.164 35.5758 180.038 35.5504C179.962 35.525 179.886 35.525 179.836 35.525C179.81 35.525 179.785 35.4995 179.785 35.4741C179.785 35.4487 179.81 35.4232 179.886 35.4232C180.089 35.4232 180.493 35.4487 180.518 35.4487C180.569 35.4487 180.948 35.4232 181.151 35.4232C181.227 35.4232 181.252 35.4487 181.252 35.4741C181.252 35.491 181.243 35.508 181.227 35.525C181.151 35.525 181.125 35.525 181.024 35.525C180.873 35.5758 180.822 35.6776 180.797 35.9065C180.797 36.11 180.797 36.288 180.797 37.28V38.3992Z" fill="white"/>
<path d="M185.526 39.6455C184.919 39.0859 184.767 38.3483 184.767 37.7632C184.767 37.3308 184.894 36.5932 185.475 36.0082C185.855 35.6266 186.411 35.3214 187.397 35.3214C187.65 35.3214 188.004 35.3468 188.308 35.3977C188.561 35.4486 188.763 35.4995 188.965 35.4995C189.041 35.5249 189.041 35.5503 189.041 35.5758C189.041 35.6266 189.016 35.7029 189.016 35.9319C188.991 36.1354 188.991 36.4915 188.991 36.5932C188.991 36.6949 188.965 36.7204 188.94 36.7204C188.889 36.7204 188.889 36.6695 188.889 36.5932C188.889 36.3388 188.788 36.0845 188.611 35.9319C188.409 35.7538 187.903 35.5758 187.347 35.5758C186.512 35.5758 186.133 35.8301 185.905 36.0336C185.45 36.4915 185.324 37.051 185.324 37.6869C185.324 38.9078 186.259 40.027 187.625 40.027C188.08 40.027 188.459 39.9761 188.712 39.7218C188.839 39.5692 188.94 39.2894 188.94 39.1876C188.965 39.1113 188.965 39.0859 189.016 39.0859C189.041 39.0859 189.066 39.1368 189.066 39.1876C189.066 39.2131 188.991 39.7727 188.915 40.0016C188.864 40.1033 188.864 40.1288 188.738 40.1796C188.51 40.2814 188.03 40.3322 187.625 40.3322C186.664 40.3322 186.032 40.0779 185.526 39.6455Z" fill="white"/>
<path d="M193.113 37.28C193.113 36.288 193.113 36.1099 193.087 35.9065C193.062 35.6775 193.037 35.5758 192.809 35.5249C192.759 35.5249 192.658 35.5249 192.607 35.5249C192.582 35.5249 192.556 35.4995 192.556 35.4741C192.556 35.4486 192.582 35.4232 192.658 35.4232C192.809 35.4232 192.961 35.4232 193.113 35.4232L193.366 35.4486C193.416 35.4486 194.681 35.4486 194.807 35.4486C194.934 35.4232 195.035 35.4232 195.085 35.3977C195.111 35.3977 195.136 35.3723 195.187 35.3723C195.187 35.3723 195.212 35.3977 195.212 35.4232C195.212 35.4741 195.161 35.5504 195.161 35.7284C195.136 35.7793 195.136 36.0845 195.111 36.1354C195.111 36.1863 195.111 36.2117 195.085 36.2117C195.052 36.2117 195.035 36.1863 195.035 36.1354C195.035 36.0845 195.01 35.9828 194.984 35.9065C194.934 35.8047 194.883 35.7284 194.529 35.703C194.428 35.6775 193.745 35.6775 193.669 35.6775C193.652 35.6775 193.644 35.6945 193.644 35.7284V37.4835C193.644 37.5343 193.652 37.5598 193.669 37.5598C193.745 37.5598 194.529 37.5598 194.681 37.5343C194.832 37.5343 194.908 37.5089 194.984 37.458C195.01 37.4072 195.035 37.3563 195.06 37.3563C195.094 37.3733 195.111 37.3987 195.111 37.4326C195.111 37.458 195.06 37.5598 195.06 37.7887C195.035 37.9159 195.035 38.1448 195.035 38.1702C195.035 38.2465 195.035 38.2974 194.984 38.2974C194.959 38.2974 194.934 38.272 194.934 38.2465C194.934 38.1702 194.934 38.1194 194.908 38.0431C194.883 37.9413 194.832 37.8396 194.58 37.8141C194.403 37.7887 193.796 37.7887 193.669 37.7887C193.635 37.7887 193.627 37.8057 193.644 37.8396V38.3992C193.644 38.6026 193.619 39.3403 193.644 39.4675C193.644 39.9253 193.745 40.0016 194.377 40.0016C194.529 40.0016 194.807 40.0016 194.984 39.9253C195.136 39.849 195.212 39.7218 195.262 39.4675C195.262 39.3911 195.288 39.3657 195.313 39.3657C195.364 39.3657 195.364 39.4166 195.364 39.4675C195.364 39.5183 195.313 39.9507 195.262 40.0779C195.237 40.256 195.187 40.256 194.934 40.256C194.453 40.256 194.099 40.2305 193.871 40.2305C193.619 40.2305 193.467 40.2051 193.366 40.2051C193.281 40.2051 193.197 40.2136 193.113 40.2305C192.986 40.2305 192.835 40.2305 192.759 40.2305C192.691 40.2305 192.658 40.2136 192.658 40.1797C192.658 40.1542 192.658 40.1288 192.708 40.1288C192.759 40.1288 192.835 40.1288 192.885 40.1288C193.012 40.1033 193.037 39.9507 193.062 39.7727C193.113 39.4929 193.113 39.0096 193.113 38.3992V37.28Z" fill="white"/>
<path d="M199.081 40.1542C199.005 40.1033 199.005 40.0779 199.005 39.8998C199.005 39.5946 199.031 39.3403 199.031 39.2385C199.031 39.1707 199.047 39.1368 199.081 39.1368C199.106 39.1368 199.106 39.1622 199.106 39.2131C199.106 39.2639 199.106 39.3403 199.132 39.442C199.233 39.8998 199.663 40.0779 200.067 40.0779C200.674 40.0779 200.978 39.6455 200.978 39.2385C200.978 38.8061 200.801 38.5517 200.245 38.0939L199.966 37.865C199.283 37.3054 199.132 36.9239 199.132 36.466C199.132 35.8047 199.663 35.3214 200.447 35.3214C200.7 35.3214 200.877 35.3723 201.054 35.3977C201.155 35.4232 201.206 35.4232 201.256 35.4232C201.307 35.4232 201.332 35.4486 201.332 35.474C201.332 35.4995 201.307 35.7284 201.307 36.1354C201.307 36.2625 201.281 36.288 201.256 36.288C201.231 36.288 201.206 36.2625 201.206 36.2117C201.206 36.1354 201.155 35.9573 201.13 35.9064C201.079 35.8301 200.927 35.5503 200.32 35.5503C199.89 35.5503 199.562 35.8301 199.562 36.288C199.562 36.6695 199.713 36.873 200.32 37.3563L200.497 37.5089C201.256 38.0939 201.433 38.5009 201.433 39.0096C201.433 39.2639 201.332 39.7472 200.902 40.0525C200.624 40.2559 200.27 40.3322 199.941 40.3322C199.638 40.3322 199.359 40.2814 199.081 40.1542Z" fill="white"/>
<path d="M66.3098 37.7379L82.3941 37.3818L98.4784 37.0511V37.7379V38.4501L82.3941 38.094L66.3098 37.7379Z" fill="white"/>
<path d="M223.916 38.094L207.831 38.4501V37.7379V37.0511L223.916 37.3818L240 37.7379L223.916 38.094Z" fill="white"/>
<path d="M52.8564 28.7953C52.8564 14.7493 41.5372 3.37017 27.5651 3.37017C13.5931 3.37017 2.27394 14.7493 2.27394 28.7953C2.27394 42.8414 13.5931 54.2205 27.5651 54.2205C31.0266 54.2205 34.3112 53.5093 37.3178 52.2647C34.0838 53.6363 30.5465 54.4237 26.8072 54.4237C12.0013 54.4237 0 42.3588 0 27.4491C0 12.5649 12.0013 0.5 26.8072 0.5C41.613 0.5 53.6143 12.5649 53.6143 27.4491C53.6143 35.9073 49.7234 43.451 43.6596 48.4039C49.2939 43.7304 52.8564 36.6947 52.8564 28.7953Z" fill="white"/>
<path d="M20.7181 40.9872C20.7686 42.181 20.8949 46.0164 20.996 49.1406C20.2633 49.039 19.6064 48.9374 19.0758 48.8104C19 45.9656 18.8989 42.8668 18.8484 41.8254C18.7726 39.7172 17.5851 39.514 16.3471 39.514C15.0838 39.514 12.9614 39.387 12.3803 38.5997C11.8245 37.8123 12.3551 36.2883 12.3551 35.9073C12.3551 35.5009 11.875 35.3231 11.7739 34.8913C11.7234 34.6034 11.7739 34.3748 11.9255 34.2055C11.6055 34.0023 11.3865 33.8414 11.2686 33.7229C11.1507 33.6044 11.1507 33.4266 11.2686 33.1895C11.555 32.7662 11.7234 32.436 11.7739 32.1989C11.875 31.8433 10.9149 31.4877 10.3085 31.1067C9.90426 30.8358 9.82004 30.5479 10.0559 30.2431C11.2349 28.7869 11.9255 27.881 12.1277 27.5254C12.4309 27.0174 12.8604 26.4332 12.5319 25.6712C12.2961 25.1462 12.3214 24.5028 12.6077 23.7408C14.0984 18.991 16.7261 16.9591 19.379 16.0701C17.4082 17.2385 15.5891 19.2704 14.4774 22.9026C14.1911 23.6646 14.1574 24.3081 14.3763 24.833C14.7301 25.6204 14.3005 26.1792 13.9973 26.6872C13.7952 27.0428 13.1046 27.9487 11.9255 29.4049C11.6897 29.7267 11.7739 30.0145 12.1782 30.2685C12.7846 30.6749 13.7447 31.0051 13.6436 31.3607C13.5931 31.5978 13.4246 31.9365 13.1383 32.3767C13.0204 32.5968 13.0204 32.7662 13.1383 32.8847C13.2562 33.0032 13.4668 33.1641 13.7699 33.3673C13.6352 33.5366 13.5931 33.7652 13.6436 34.0531C13.7447 34.4849 14.2247 34.6627 14.2247 35.0691C14.2247 35.4501 13.6941 36.9741 14.25 37.7615C14.8058 38.5489 16.9535 38.6759 18.1915 38.6759C19.4548 38.6759 20.617 38.9045 20.7181 40.9872Z" fill="white"/>
<path d="M24.8617 39.5395C24.9122 40.9365 25.0891 46.2196 25.1902 49.4454C24.5332 49.4454 23.8763 49.4454 23.2952 49.3946C23.1942 46.1434 23.0426 41.6477 22.992 40.3523C22.891 38.2695 21.7287 38.0663 20.4654 38.0663C19.2274 38.0663 17.1051 37.9139 16.5239 37.1519C15.9681 36.3645 16.4734 34.8405 16.4734 34.4341C16.4734 34.0531 16.0186 33.8753 15.9176 33.4435C15.867 33.1557 15.9176 32.9186 16.0692 32.7323C15.7491 32.5291 15.5301 32.3683 15.4122 32.2497C15.2943 32.1481 15.2943 31.9788 15.4122 31.7418C15.6986 31.3015 15.867 30.9628 15.9176 30.7258C16.0186 30.3956 15.0585 30.04 14.4521 29.659C14.0479 29.388 13.9637 29.0917 14.1995 28.77C15.3785 27.3307 16.0691 26.4332 16.2713 26.0776C16.5745 25.5442 17.004 24.9854 16.6503 24.198C16.4313 23.6731 16.465 23.0381 16.7513 22.293C18.2168 17.5179 20.8697 15.4859 23.5226 14.6223C21.5519 15.7653 19.7327 17.8227 18.621 21.4549C18.3347 22.2168 18.301 22.8518 18.52 23.3598C18.8737 24.1472 18.4442 24.7314 18.141 25.2394C17.9388 25.595 17.2482 26.5009 16.0692 27.9572C15.8333 28.262 15.9176 28.5498 16.3218 28.8208C16.9282 29.2018 17.8883 29.5574 17.7872 29.913C17.7367 30.1331 17.5683 30.4633 17.2819 30.9036C17.164 31.1406 17.164 31.3184 17.2819 31.437C17.383 31.5555 17.5935 31.7164 17.9136 31.9195C17.7788 32.0889 17.7367 32.3175 17.7872 32.6053C17.8883 33.0371 18.3431 33.2149 18.3431 33.6213C18.3431 34.0023 17.8378 35.5263 18.3936 36.3137C18.9495 37.1011 21.0718 37.2281 22.3351 37.2281C23.5984 37.2281 24.7606 37.4313 24.8617 39.5395Z" fill="white"/>
<path d="M50.5572 28.8207C50.5572 41.5714 40.2487 51.9091 27.5652 51.9091C14.8817 51.9091 4.57318 41.5714 4.57318 28.8207C4.57318 28.5921 4.62371 28.3635 4.62371 28.1349C4.97744 39.8442 14.5027 49.2167 26.2261 49.2167C38.1769 49.2167 47.8537 39.4886 47.8537 27.4491C47.8537 15.689 38.5306 6.11331 26.883 5.75771C27.1104 5.73231 27.3378 5.70691 27.5652 5.70691C40.2487 5.70691 50.5572 16.0446 50.5572 28.8207Z" fill="white"/>
<path fill-rule="evenodd" clip-rule="evenodd" d="M39.7433 33.291C39.7686 35.577 40.6782 41.3427 41.0824 43.9335C36.762 47.7181 31.7846 49.0897 27.4894 49.3945C27.363 46.1941 27.1862 40.5808 27.1356 39.1076C27.0346 37.0248 25.8723 36.7962 24.609 36.7962C23.371 36.7962 21.2234 36.6692 20.6676 35.8818C20.1117 35.1198 20.617 33.5704 20.617 33.1894C20.617 32.8084 20.137 32.6306 20.0612 32.1988C20.0106 31.911 20.0527 31.6739 20.1875 31.4876C19.8675 31.2844 19.6569 31.1236 19.5559 31.005C19.4379 30.9034 19.4379 30.7341 19.5559 30.4971C19.8422 30.0568 20.0106 29.7181 20.0612 29.4811C20.137 29.1509 19.2021 28.7953 18.5957 28.3889C18.1915 28.1349 18.1073 27.847 18.3431 27.5253C19.5222 26.069 20.2128 25.1716 20.4149 24.8329C20.7181 24.2995 21.1476 23.7407 20.7939 22.9533C20.5749 22.4284 20.6086 21.7849 20.8949 21.0229C23.4468 12.7934 29.4601 12.7172 33.0984 12.6664C36.7367 12.641 43.0785 15.562 43.2806 21.6833C43.508 27.8301 39.6928 30.2685 39.7433 33.291ZM38.5558 21.2515L36.9388 19.626H37.0399C37.2252 19.626 37.402 19.5921 37.5705 19.5244C37.7052 19.4736 37.8231 19.3889 37.9242 19.2704C38.2779 18.9148 38.3537 18.356 38.1263 17.9242C38.0758 17.8226 38.0084 17.7294 37.9242 17.6448C37.4694 17.1876 36.7367 17.1876 36.2819 17.6448C36.0545 17.8988 35.9535 18.2036 35.9535 18.5338V18.6354L34.2859 16.959L35.8019 15.6382L34.4375 14.038L32.8457 15.435L34.1848 16.959L32.7952 18.356C32.9215 18.3814 33.0226 18.4068 33.1237 18.4576C33.73 18.7878 33.9322 19.5498 33.629 20.134C33.3005 20.7181 32.5678 20.9467 31.9614 20.6165C31.633 20.4387 31.4308 20.134 31.3551 19.8038L29.9402 21.2515L31.6582 22.9787L31.4814 22.9533C31.2961 22.9533 31.1277 22.9872 30.9761 23.0549C30.8413 23.1057 30.7318 23.1819 30.6476 23.2835C30.2686 23.6391 30.2181 24.1979 30.4455 24.6043C30.4792 24.7059 30.5465 24.799 30.6476 24.8837C31.0771 25.3155 31.7846 25.3155 32.2141 24.8837C32.4415 24.6551 32.5678 24.3249 32.5426 24.0201L32.5173 23.8677L34.2354 25.5695L35.6503 24.1725L35.7261 24.0963C35.4481 24.0709 35.1955 23.9439 35.0186 23.7407C34.5133 23.2581 34.5133 22.4453 35.0186 21.9373C35.1028 21.8527 35.2039 21.7765 35.3218 21.7087C35.8019 21.4547 36.4082 21.5309 36.7872 21.9373C36.9136 22.0643 36.9894 22.1913 37.0652 22.3183C37.1157 22.4453 37.1157 22.5469 37.1662 22.6739V22.6485L38.5558 21.2515Z" fill="white"/>
</svg>
