<svg width="542" height="211" viewBox="0 0 542 211" fill="none" xmlns="http://www.w3.org/2000/svg">
<rect width="542" height="211" rx="8" fill="#1E3B5A" fill-opacity="0.1"/>
<g clip-path="url(#clip0_34_6583)">
<path d="M280 72.5H289C289.398 72.5 289.779 72.658 290.061 72.9393C290.342 73.2206 290.5 73.6022 290.5 74V86C290.5 86.3978 290.342 86.7794 290.061 87.0607C289.779 87.342 289.398 87.5 289 87.5H253C252.602 87.5 252.221 87.342 251.939 87.0607C251.658 86.7794 251.5 86.3978 251.5 86V74C251.5 73.6022 251.658 73.2206 251.939 72.9393C252.221 72.658 252.602 72.5 253 72.5H262" stroke="#247FA4" stroke-width="2" stroke-linecap="round" stroke-linejoin="round"/>
<path d="M271 72.5V53" stroke="#247FA4" stroke-width="2" stroke-linecap="round" stroke-linejoin="round"/>
<path d="M262 62L271 53L280 62" stroke="#247FA4" stroke-width="2" stroke-linecap="round" stroke-linejoin="round"/>
<path d="M282.25 82.25C283.493 82.25 284.5 81.2426 284.5 80C284.5 78.7574 283.493 77.75 282.25 77.75C281.007 77.75 280 78.7574 280 80C280 81.2426 281.007 82.25 282.25 82.25Z" fill="#247FA4"/>
</g>
<path opacity="0.75" d="M113.684 124.5V113.3H117.124C119.097 113.3 120.548 113.801 121.476 114.804C122.415 115.807 122.884 117.183 122.884 118.932C122.884 120.649 122.415 122.009 121.476 123.012C120.548 124.004 119.097 124.5 117.124 124.5H113.684ZM115.028 123.38H117.092C118.18 123.38 119.044 123.204 119.684 122.852C120.335 122.489 120.799 121.977 121.076 121.316C121.353 120.644 121.492 119.849 121.492 118.932C121.492 117.993 121.353 117.188 121.076 116.516C120.799 115.844 120.335 115.327 119.684 114.964C119.044 114.601 118.18 114.42 117.092 114.42H115.028V123.38ZM124.745 124.5V116.564H125.961L126.073 118.084C126.318 117.561 126.691 117.145 127.193 116.836C127.694 116.527 128.313 116.372 129.049 116.372V117.78H128.681C128.211 117.78 127.779 117.865 127.385 118.036C126.99 118.196 126.675 118.473 126.441 118.868C126.206 119.263 126.089 119.807 126.089 120.5V124.5H124.745ZM133.197 124.692C132.536 124.692 131.986 124.58 131.549 124.356C131.112 124.132 130.786 123.833 130.573 123.46C130.36 123.087 130.253 122.681 130.253 122.244C130.253 121.433 130.562 120.809 131.181 120.372C131.8 119.935 132.642 119.716 133.709 119.716H135.853V119.62C135.853 118.927 135.672 118.404 135.309 118.052C134.946 117.689 134.461 117.508 133.853 117.508C133.33 117.508 132.877 117.641 132.493 117.908C132.12 118.164 131.885 118.543 131.789 119.044H130.413C130.466 118.468 130.658 117.983 130.989 117.588C131.33 117.193 131.752 116.895 132.253 116.692C132.754 116.479 133.288 116.372 133.853 116.372C134.962 116.372 135.794 116.671 136.349 117.268C136.914 117.855 137.197 118.639 137.197 119.62V124.5H135.997L135.917 123.076C135.693 123.524 135.362 123.908 134.925 124.228C134.498 124.537 133.922 124.692 133.197 124.692ZM133.405 123.556C133.917 123.556 134.354 123.423 134.717 123.156C135.09 122.889 135.373 122.543 135.565 122.116C135.757 121.689 135.853 121.241 135.853 120.772V120.756H133.821C133.032 120.756 132.472 120.895 132.141 121.172C131.821 121.439 131.661 121.775 131.661 122.18C131.661 122.596 131.81 122.932 132.109 123.188C132.418 123.433 132.85 123.556 133.405 123.556ZM142.349 122.004C141.901 122.004 141.491 121.945 141.117 121.828L140.317 122.58C140.435 122.665 140.579 122.74 140.749 122.804C140.931 122.857 141.187 122.911 141.517 122.964C141.848 123.007 142.312 123.055 142.909 123.108C143.976 123.183 144.739 123.428 145.197 123.844C145.656 124.26 145.885 124.804 145.885 125.476C145.885 125.935 145.757 126.372 145.501 126.788C145.256 127.204 144.872 127.545 144.349 127.812C143.837 128.079 143.176 128.212 142.365 128.212C141.651 128.212 141.016 128.116 140.461 127.924C139.907 127.743 139.475 127.46 139.165 127.076C138.856 126.703 138.701 126.228 138.701 125.652C138.701 125.353 138.781 125.028 138.941 124.676C139.101 124.335 139.4 124.009 139.837 123.7C139.603 123.604 139.4 123.503 139.229 123.396C139.069 123.279 138.92 123.151 138.781 123.012V122.644L140.141 121.3C139.512 120.767 139.197 120.063 139.197 119.188C139.197 118.665 139.32 118.191 139.565 117.764C139.811 117.337 140.168 117.001 140.637 116.756C141.107 116.5 141.677 116.372 142.349 116.372C142.808 116.372 143.224 116.436 143.597 116.564H146.525V117.572L145.037 117.636C145.347 118.084 145.501 118.601 145.501 119.188C145.501 119.711 145.373 120.185 145.117 120.612C144.872 121.039 144.515 121.38 144.045 121.636C143.587 121.881 143.021 122.004 142.349 122.004ZM142.349 120.9C142.915 120.9 143.363 120.756 143.693 120.468C144.035 120.169 144.205 119.743 144.205 119.188C144.205 118.644 144.035 118.228 143.693 117.94C143.363 117.641 142.915 117.492 142.349 117.492C141.773 117.492 141.315 117.641 140.973 117.94C140.643 118.228 140.477 118.644 140.477 119.188C140.477 119.743 140.643 120.169 140.973 120.468C141.315 120.756 141.773 120.9 142.349 120.9ZM140.013 125.524C140.013 126.057 140.237 126.452 140.685 126.708C141.133 126.975 141.693 127.108 142.365 127.108C143.027 127.108 143.555 126.964 143.949 126.676C144.355 126.388 144.557 126.004 144.557 125.524C144.557 125.183 144.419 124.884 144.141 124.628C143.864 124.383 143.352 124.239 142.605 124.196C142.019 124.153 141.512 124.1 141.085 124.036C140.648 124.271 140.36 124.521 140.221 124.788C140.083 125.065 140.013 125.311 140.013 125.524ZM155.668 124.692C154.9 124.692 154.223 124.553 153.636 124.276C153.06 123.988 152.607 123.593 152.276 123.092C151.956 122.58 151.796 121.977 151.796 121.284C151.796 120.527 152.015 119.855 152.452 119.268C152.9 118.671 153.545 118.201 154.388 117.86C154.025 117.465 153.764 117.092 153.604 116.74C153.444 116.377 153.364 115.988 153.364 115.572C153.364 114.857 153.615 114.271 154.116 113.812C154.628 113.343 155.327 113.108 156.212 113.108C156.788 113.108 157.289 113.22 157.716 113.444C158.143 113.657 158.473 113.956 158.708 114.34C158.943 114.724 159.049 115.161 159.028 115.652H157.7C157.711 115.172 157.561 114.809 157.252 114.564C156.953 114.319 156.607 114.196 156.212 114.196C155.732 114.196 155.359 114.324 155.092 114.58C154.825 114.836 154.692 115.161 154.692 115.556C154.692 115.897 154.783 116.228 154.964 116.548C155.156 116.868 155.439 117.225 155.812 117.62L159.348 121.188C159.657 120.74 159.993 120.201 160.356 119.572L160.852 118.708H162.276L161.572 119.956C161.103 120.799 160.655 121.503 160.228 122.068L162.644 124.5H160.948L159.46 122.996C158.895 123.604 158.308 124.041 157.7 124.308C157.092 124.564 156.415 124.692 155.668 124.692ZM153.14 121.236C153.14 121.897 153.375 122.447 153.844 122.884C154.313 123.321 154.927 123.54 155.684 123.54C156.249 123.54 156.761 123.433 157.22 123.22C157.689 122.996 158.148 122.633 158.596 122.132L155.204 118.692C154.5 118.969 153.977 119.321 153.636 119.748C153.305 120.175 153.14 120.671 153.14 121.236ZM168.309 124.5V113.3H171.749C173.722 113.3 175.173 113.801 176.101 114.804C177.04 115.807 177.509 117.183 177.509 118.932C177.509 120.649 177.04 122.009 176.101 123.012C175.173 124.004 173.722 124.5 171.749 124.5H168.309ZM169.653 123.38H171.717C172.805 123.38 173.669 123.204 174.309 122.852C174.96 122.489 175.424 121.977 175.701 121.316C175.978 120.644 176.117 119.849 176.117 118.932C176.117 117.993 175.978 117.188 175.701 116.516C175.424 115.844 174.96 115.327 174.309 114.964C173.669 114.601 172.805 114.42 171.717 114.42H169.653V123.38ZM179.37 124.5V116.564H180.586L180.698 118.084C180.943 117.561 181.316 117.145 181.818 116.836C182.319 116.527 182.938 116.372 183.674 116.372V117.78H183.306C182.836 117.78 182.404 117.865 182.01 118.036C181.615 118.196 181.3 118.473 181.066 118.868C180.831 119.263 180.714 119.807 180.714 120.5V124.5H179.37ZM188.501 124.692C187.755 124.692 187.083 124.521 186.485 124.18C185.888 123.839 185.413 123.359 185.061 122.74C184.72 122.111 184.549 121.375 184.549 120.532C184.549 119.689 184.725 118.959 185.077 118.34C185.429 117.711 185.904 117.225 186.501 116.884C187.109 116.543 187.787 116.372 188.533 116.372C189.28 116.372 189.952 116.543 190.549 116.884C191.147 117.225 191.616 117.711 191.957 118.34C192.309 118.959 192.485 119.689 192.485 120.532C192.485 121.375 192.309 122.111 191.957 122.74C191.605 123.359 191.125 123.839 190.517 124.18C189.92 124.521 189.248 124.692 188.501 124.692ZM188.501 123.54C188.96 123.54 189.387 123.428 189.781 123.204C190.176 122.98 190.496 122.644 190.741 122.196C190.987 121.748 191.109 121.193 191.109 120.532C191.109 119.871 190.987 119.316 190.741 118.868C190.507 118.42 190.192 118.084 189.797 117.86C189.403 117.636 188.981 117.524 188.533 117.524C188.075 117.524 187.648 117.636 187.253 117.86C186.859 118.084 186.539 118.42 186.293 118.868C186.048 119.316 185.925 119.871 185.925 120.532C185.925 121.193 186.048 121.748 186.293 122.196C186.539 122.644 186.853 122.98 187.237 123.204C187.632 123.428 188.053 123.54 188.501 123.54ZM194.354 128.02V116.564H195.57L195.698 117.876C195.954 117.492 196.317 117.145 196.786 116.836C197.266 116.527 197.874 116.372 198.61 116.372C199.399 116.372 200.087 116.553 200.674 116.916C201.261 117.279 201.714 117.775 202.034 118.404C202.365 119.033 202.53 119.748 202.53 120.548C202.53 121.348 202.365 122.063 202.034 122.692C201.714 123.311 201.255 123.801 200.658 124.164C200.071 124.516 199.383 124.692 198.594 124.692C197.943 124.692 197.362 124.559 196.85 124.292C196.349 124.025 195.965 123.652 195.698 123.172V128.02H194.354ZM198.45 123.524C198.983 123.524 199.453 123.401 199.858 123.156C200.263 122.9 200.583 122.548 200.818 122.1C201.053 121.652 201.17 121.129 201.17 120.532C201.17 119.935 201.053 119.412 200.818 118.964C200.583 118.516 200.263 118.169 199.858 117.924C199.453 117.668 198.983 117.54 198.45 117.54C197.917 117.54 197.447 117.668 197.042 117.924C196.637 118.169 196.317 118.516 196.082 118.964C195.847 119.412 195.73 119.935 195.73 120.532C195.73 121.129 195.847 121.652 196.082 122.1C196.317 122.548 196.637 122.9 197.042 123.156C197.447 123.401 197.917 123.524 198.45 123.524ZM209.067 124.5V117.7H207.867V116.564H209.067V115.188C209.067 114.42 209.259 113.86 209.643 113.508C210.027 113.156 210.587 112.98 211.323 112.98H212.123V114.132H211.531C211.126 114.132 210.838 114.217 210.667 114.388C210.497 114.548 210.411 114.825 210.411 115.22V116.564H215.339V124.5H213.995V117.7H210.411V124.5H209.067ZM214.683 115.044C214.427 115.044 214.209 114.959 214.027 114.788C213.846 114.607 213.755 114.383 213.755 114.116C213.755 113.86 213.846 113.647 214.027 113.476C214.209 113.305 214.427 113.22 214.683 113.22C214.95 113.22 215.169 113.305 215.339 113.476C215.521 113.647 215.611 113.86 215.611 114.116C215.611 114.383 215.521 114.607 215.339 114.788C215.169 114.959 214.95 115.044 214.683 115.044ZM217.713 124.5V112.98H219.057V124.5H217.713ZM224.828 124.692C224.071 124.692 223.399 124.521 222.812 124.18C222.226 123.828 221.762 123.343 221.42 122.724C221.09 122.105 220.924 121.375 220.924 120.532C220.924 119.7 221.09 118.975 221.42 118.356C221.751 117.727 222.21 117.241 222.796 116.9C223.394 116.548 224.082 116.372 224.86 116.372C225.628 116.372 226.29 116.548 226.844 116.9C227.41 117.241 227.842 117.695 228.14 118.26C228.439 118.825 228.588 119.433 228.588 120.084C228.588 120.201 228.583 120.319 228.572 120.436C228.572 120.553 228.572 120.687 228.572 120.836H222.252C222.284 121.444 222.423 121.951 222.668 122.356C222.924 122.751 223.239 123.049 223.612 123.252C223.996 123.455 224.402 123.556 224.828 123.556C225.383 123.556 225.847 123.428 226.22 123.172C226.594 122.916 226.866 122.569 227.036 122.132H228.364C228.151 122.868 227.74 123.481 227.132 123.972C226.535 124.452 225.767 124.692 224.828 124.692ZM224.828 117.508C224.188 117.508 223.618 117.705 223.116 118.1C222.626 118.484 222.343 119.049 222.268 119.796H227.26C227.228 119.081 226.983 118.521 226.524 118.116C226.066 117.711 225.5 117.508 224.828 117.508ZM233.41 124.692C232.46 124.692 231.671 124.452 231.042 123.972C230.412 123.492 230.044 122.841 229.938 122.02H231.314C231.399 122.436 231.618 122.799 231.97 123.108C232.332 123.407 232.818 123.556 233.426 123.556C233.991 123.556 234.407 123.439 234.674 123.204C234.94 122.959 235.074 122.671 235.074 122.34C235.074 121.86 234.898 121.54 234.546 121.38C234.204 121.22 233.719 121.076 233.09 120.948C232.663 120.863 232.236 120.74 231.81 120.58C231.383 120.42 231.026 120.196 230.738 119.908C230.45 119.609 230.306 119.22 230.306 118.74C230.306 118.047 230.562 117.481 231.074 117.044C231.596 116.596 232.3 116.372 233.186 116.372C234.028 116.372 234.716 116.585 235.25 117.012C235.794 117.428 236.108 118.025 236.194 118.804H234.866C234.812 118.399 234.636 118.084 234.338 117.86C234.05 117.625 233.66 117.508 233.17 117.508C232.69 117.508 232.316 117.609 232.05 117.812C231.794 118.015 231.666 118.281 231.666 118.612C231.666 118.932 231.831 119.183 232.162 119.364C232.503 119.545 232.962 119.7 233.538 119.828C234.028 119.935 234.492 120.068 234.93 120.228C235.378 120.377 235.74 120.607 236.018 120.916C236.306 121.215 236.45 121.652 236.45 122.228C236.46 122.943 236.188 123.535 235.634 124.004C235.09 124.463 234.348 124.692 233.41 124.692ZM246.22 124.692C245.473 124.692 244.801 124.521 244.204 124.18C243.607 123.839 243.132 123.359 242.78 122.74C242.439 122.111 242.268 121.375 242.268 120.532C242.268 119.689 242.444 118.959 242.796 118.34C243.148 117.711 243.623 117.225 244.22 116.884C244.828 116.543 245.505 116.372 246.252 116.372C246.999 116.372 247.671 116.543 248.268 116.884C248.865 117.225 249.335 117.711 249.676 118.34C250.028 118.959 250.204 119.689 250.204 120.532C250.204 121.375 250.028 122.111 249.676 122.74C249.324 123.359 248.844 123.839 248.236 124.18C247.639 124.521 246.967 124.692 246.22 124.692ZM246.22 123.54C246.679 123.54 247.105 123.428 247.5 123.204C247.895 122.98 248.215 122.644 248.46 122.196C248.705 121.748 248.828 121.193 248.828 120.532C248.828 119.871 248.705 119.316 248.46 118.868C248.225 118.42 247.911 118.084 247.516 117.86C247.121 117.636 246.7 117.524 246.252 117.524C245.793 117.524 245.367 117.636 244.972 117.86C244.577 118.084 244.257 118.42 244.012 118.868C243.767 119.316 243.644 119.871 243.644 120.532C243.644 121.193 243.767 121.748 244.012 122.196C244.257 122.644 244.572 122.98 244.956 123.204C245.351 123.428 245.772 123.54 246.22 123.54ZM252.073 124.5V116.564H253.289L253.401 118.084C253.646 117.561 254.019 117.145 254.521 116.836C255.022 116.527 255.641 116.372 256.377 116.372V117.78H256.009C255.539 117.78 255.107 117.865 254.713 118.036C254.318 118.196 254.003 118.473 253.769 118.868C253.534 119.263 253.417 119.807 253.417 120.5V124.5H252.073Z" fill="#1E3B5A"/>
<path d="M262.588 124.5V113.3H267.084C268.247 113.3 269.132 113.572 269.74 114.116C270.359 114.649 270.668 115.337 270.668 116.18C270.668 116.884 270.476 117.449 270.092 117.876C269.719 118.292 269.26 118.575 268.716 118.724C269.356 118.852 269.884 119.172 270.3 119.684C270.716 120.185 270.924 120.772 270.924 121.444C270.924 122.329 270.604 123.06 269.964 123.636C269.324 124.212 268.417 124.5 267.244 124.5H262.588ZM264.636 118.004H266.78C267.356 118.004 267.799 117.871 268.108 117.604C268.417 117.337 268.572 116.959 268.572 116.468C268.572 115.999 268.417 115.631 268.108 115.364C267.809 115.087 267.356 114.948 266.748 114.948H264.636V118.004ZM264.636 122.836H266.924C267.532 122.836 268.001 122.697 268.332 122.42C268.673 122.132 268.844 121.732 268.844 121.22C268.844 120.697 268.668 120.287 268.316 119.988C267.964 119.689 267.489 119.54 266.892 119.54H264.636V122.836ZM272.634 124.5V116.564H274.458L274.65 118.052C274.938 117.54 275.327 117.135 275.818 116.836C276.319 116.527 276.906 116.372 277.578 116.372V118.532H277.002C276.554 118.532 276.154 118.601 275.802 118.74C275.45 118.879 275.172 119.119 274.97 119.46C274.778 119.801 274.682 120.276 274.682 120.884V124.5H272.634ZM282.645 124.692C281.877 124.692 281.184 124.516 280.565 124.164C279.957 123.812 279.472 123.327 279.109 122.708C278.757 122.079 278.581 121.353 278.581 120.532C278.581 119.711 278.762 118.991 279.125 118.372C279.488 117.743 279.973 117.252 280.581 116.9C281.2 116.548 281.893 116.372 282.661 116.372C283.418 116.372 284.101 116.548 284.709 116.9C285.328 117.252 285.813 117.743 286.165 118.372C286.528 118.991 286.709 119.711 286.709 120.532C286.709 121.353 286.528 122.079 286.165 122.708C285.813 123.327 285.328 123.812 284.709 124.164C284.09 124.516 283.402 124.692 282.645 124.692ZM282.645 122.916C283.178 122.916 283.642 122.719 284.037 122.324C284.432 121.919 284.629 121.321 284.629 120.532C284.629 119.743 284.432 119.151 284.037 118.756C283.642 118.351 283.184 118.148 282.661 118.148C282.117 118.148 281.648 118.351 281.253 118.756C280.869 119.151 280.677 119.743 280.677 120.532C280.677 121.321 280.869 121.919 281.253 122.324C281.648 122.719 282.112 122.916 282.645 122.916ZM289.811 124.5L287.491 116.564H289.523L290.899 122.276L292.499 116.564H294.771L296.371 122.276L297.763 116.564H299.795L297.459 124.5H295.331L293.635 118.564L291.939 124.5H289.811ZM304.367 124.692C303.663 124.692 303.044 124.58 302.511 124.356C301.978 124.121 301.551 123.801 301.231 123.396C300.911 122.991 300.719 122.521 300.655 121.988H302.719C302.783 122.297 302.954 122.564 303.231 122.788C303.519 123.001 303.887 123.108 304.335 123.108C304.783 123.108 305.108 123.017 305.311 122.836C305.524 122.655 305.631 122.447 305.631 122.212C305.631 121.871 305.482 121.641 305.183 121.524C304.884 121.396 304.468 121.273 303.935 121.156C303.594 121.081 303.247 120.991 302.895 120.884C302.543 120.777 302.218 120.644 301.919 120.484C301.631 120.313 301.396 120.1 301.215 119.844C301.034 119.577 300.943 119.252 300.943 118.868C300.943 118.164 301.22 117.572 301.775 117.092C302.34 116.612 303.13 116.372 304.143 116.372C305.082 116.372 305.828 116.591 306.383 117.028C306.948 117.465 307.284 118.068 307.391 118.836H305.455C305.338 118.249 304.895 117.956 304.127 117.956C303.743 117.956 303.444 118.031 303.231 118.18C303.028 118.329 302.927 118.516 302.927 118.74C302.927 118.975 303.082 119.161 303.391 119.3C303.7 119.439 304.111 119.567 304.623 119.684C305.178 119.812 305.684 119.956 306.143 120.116C306.612 120.265 306.986 120.495 307.263 120.804C307.54 121.103 307.679 121.535 307.679 122.1C307.69 122.591 307.562 123.033 307.295 123.428C307.028 123.823 306.644 124.132 306.143 124.356C305.642 124.58 305.05 124.692 304.367 124.692ZM313.349 124.692C312.549 124.692 311.84 124.521 311.221 124.18C310.602 123.839 310.117 123.359 309.765 122.74C309.413 122.121 309.237 121.407 309.237 120.596C309.237 119.775 309.408 119.044 309.749 118.404C310.101 117.764 310.581 117.268 311.189 116.916C311.808 116.553 312.533 116.372 313.365 116.372C314.144 116.372 314.832 116.543 315.429 116.884C316.026 117.225 316.49 117.695 316.821 118.292C317.162 118.879 317.333 119.535 317.333 120.26C317.333 120.377 317.328 120.5 317.317 120.628C317.317 120.756 317.312 120.889 317.301 121.028H311.269C311.312 121.647 311.525 122.132 311.909 122.484C312.304 122.836 312.778 123.012 313.333 123.012C313.749 123.012 314.096 122.921 314.373 122.74C314.661 122.548 314.874 122.303 315.013 122.004H317.093C316.944 122.505 316.693 122.964 316.341 123.38C316 123.785 315.573 124.105 315.061 124.34C314.56 124.575 313.989 124.692 313.349 124.692ZM313.365 118.036C312.864 118.036 312.421 118.18 312.037 118.468C311.653 118.745 311.408 119.172 311.301 119.748H315.253C315.221 119.225 315.029 118.809 314.677 118.5C314.325 118.191 313.888 118.036 313.365 118.036ZM323.236 124.5V118.276H322.148V116.564H323.236V115.636C323.236 114.676 323.476 113.993 323.956 113.588C324.447 113.183 325.108 112.98 325.94 112.98H326.82V114.724H326.26C325.908 114.724 325.657 114.793 325.508 114.932C325.359 115.071 325.284 115.305 325.284 115.636V116.564H330.404V124.5H328.356V118.276H325.284V124.5H323.236ZM329.396 115.428C329.023 115.428 328.713 115.316 328.468 115.092C328.233 114.868 328.116 114.585 328.116 114.244C328.116 113.903 328.233 113.625 328.468 113.412C328.713 113.188 329.023 113.076 329.396 113.076C329.769 113.076 330.073 113.188 330.308 113.412C330.553 113.625 330.676 113.903 330.676 114.244C330.676 114.585 330.553 114.868 330.308 115.092C330.073 115.316 329.769 115.428 329.396 115.428ZM332.571 124.5V112.98H334.619V124.5H332.571ZM340.568 124.692C339.768 124.692 339.059 124.521 338.44 124.18C337.821 123.839 337.336 123.359 336.984 122.74C336.632 122.121 336.456 121.407 336.456 120.596C336.456 119.775 336.627 119.044 336.968 118.404C337.32 117.764 337.8 117.268 338.408 116.916C339.027 116.553 339.752 116.372 340.584 116.372C341.363 116.372 342.051 116.543 342.648 116.884C343.245 117.225 343.709 117.695 344.04 118.292C344.381 118.879 344.552 119.535 344.552 120.26C344.552 120.377 344.547 120.5 344.536 120.628C344.536 120.756 344.531 120.889 344.52 121.028H338.488C338.531 121.647 338.744 122.132 339.128 122.484C339.523 122.836 339.997 123.012 340.552 123.012C340.968 123.012 341.315 122.921 341.592 122.74C341.88 122.548 342.093 122.303 342.232 122.004H344.312C344.163 122.505 343.912 122.964 343.56 123.38C343.219 123.785 342.792 124.105 342.28 124.34C341.779 124.575 341.208 124.692 340.568 124.692ZM340.584 118.036C340.083 118.036 339.64 118.18 339.256 118.468C338.872 118.745 338.627 119.172 338.52 119.748H342.472C342.44 119.225 342.248 118.809 341.896 118.5C341.544 118.191 341.107 118.036 340.584 118.036ZM349.554 124.692C348.85 124.692 348.232 124.58 347.698 124.356C347.165 124.121 346.738 123.801 346.418 123.396C346.098 122.991 345.906 122.521 345.842 121.988H347.906C347.97 122.297 348.141 122.564 348.418 122.788C348.706 123.001 349.074 123.108 349.522 123.108C349.97 123.108 350.296 123.017 350.498 122.836C350.712 122.655 350.818 122.447 350.818 122.212C350.818 121.871 350.669 121.641 350.37 121.524C350.072 121.396 349.656 121.273 349.122 121.156C348.781 121.081 348.434 120.991 348.082 120.884C347.73 120.777 347.405 120.644 347.106 120.484C346.818 120.313 346.584 120.1 346.402 119.844C346.221 119.577 346.13 119.252 346.13 118.868C346.13 118.164 346.408 117.572 346.962 117.092C347.528 116.612 348.317 116.372 349.33 116.372C350.269 116.372 351.016 116.591 351.57 117.028C352.136 117.465 352.472 118.068 352.578 118.836H350.642C350.525 118.249 350.082 117.956 349.314 117.956C348.93 117.956 348.632 118.031 348.418 118.18C348.216 118.329 348.114 118.516 348.114 118.74C348.114 118.975 348.269 119.161 348.578 119.3C348.888 119.439 349.298 119.567 349.81 119.684C350.365 119.812 350.872 119.956 351.33 120.116C351.8 120.265 352.173 120.495 352.45 120.804C352.728 121.103 352.866 121.535 352.866 122.1C352.877 122.591 352.749 123.033 352.482 123.428C352.216 123.823 351.832 124.132 351.33 124.356C350.829 124.58 350.237 124.692 349.554 124.692Z" fill="#247FA4"/>
<path opacity="0.75" d="M362.74 124.5C362.015 124.5 361.444 124.324 361.028 123.972C360.612 123.62 360.404 122.985 360.404 122.068V117.7H359.028V116.564H360.404L360.58 114.66H361.748V116.564H364.084V117.7H361.748V122.068C361.748 122.569 361.849 122.911 362.052 123.092C362.255 123.263 362.612 123.348 363.124 123.348H363.956V124.5H362.74ZM369.189 124.692C368.442 124.692 367.77 124.521 367.173 124.18C366.575 123.839 366.101 123.359 365.749 122.74C365.407 122.111 365.237 121.375 365.237 120.532C365.237 119.689 365.413 118.959 365.765 118.34C366.117 117.711 366.591 117.225 367.189 116.884C367.797 116.543 368.474 116.372 369.221 116.372C369.967 116.372 370.639 116.543 371.237 116.884C371.834 117.225 372.303 117.711 372.645 118.34C372.997 118.959 373.173 119.689 373.173 120.532C373.173 121.375 372.997 122.111 372.645 122.74C372.293 123.359 371.813 123.839 371.205 124.18C370.607 124.521 369.935 124.692 369.189 124.692ZM369.189 123.54C369.647 123.54 370.074 123.428 370.469 123.204C370.863 122.98 371.183 122.644 371.429 122.196C371.674 121.748 371.797 121.193 371.797 120.532C371.797 119.871 371.674 119.316 371.429 118.868C371.194 118.42 370.879 118.084 370.485 117.86C370.09 117.636 369.669 117.524 369.221 117.524C368.762 117.524 368.335 117.636 367.941 117.86C367.546 118.084 367.226 118.42 366.981 118.868C366.735 119.316 366.613 119.871 366.613 120.532C366.613 121.193 366.735 121.748 366.981 122.196C367.226 122.644 367.541 122.98 367.925 123.204C368.319 123.428 368.741 123.54 369.189 123.54ZM382.172 124.692C381.233 124.692 380.487 124.409 379.932 123.844C379.377 123.268 379.1 122.388 379.1 121.204V116.564H380.444V121.06C380.444 122.713 381.121 123.54 382.476 123.54C383.169 123.54 383.74 123.295 384.188 122.804C384.647 122.303 384.876 121.593 384.876 120.676V116.564H386.22V124.5H385.004L384.908 123.076C384.663 123.577 384.295 123.972 383.804 124.26C383.324 124.548 382.78 124.692 382.172 124.692ZM388.432 128.02V116.564H389.648L389.776 117.876C390.032 117.492 390.395 117.145 390.864 116.836C391.344 116.527 391.952 116.372 392.688 116.372C393.477 116.372 394.165 116.553 394.752 116.916C395.339 117.279 395.792 117.775 396.112 118.404C396.443 119.033 396.608 119.748 396.608 120.548C396.608 121.348 396.443 122.063 396.112 122.692C395.792 123.311 395.333 123.801 394.736 124.164C394.149 124.516 393.461 124.692 392.672 124.692C392.021 124.692 391.44 124.559 390.928 124.292C390.427 124.025 390.043 123.652 389.776 123.172V128.02H388.432ZM392.528 123.524C393.061 123.524 393.531 123.401 393.936 123.156C394.341 122.9 394.661 122.548 394.896 122.1C395.131 121.652 395.248 121.129 395.248 120.532C395.248 119.935 395.131 119.412 394.896 118.964C394.661 118.516 394.341 118.169 393.936 117.924C393.531 117.668 393.061 117.54 392.528 117.54C391.995 117.54 391.525 117.668 391.12 117.924C390.715 118.169 390.395 118.516 390.16 118.964C389.925 119.412 389.808 119.935 389.808 120.532C389.808 121.129 389.925 121.652 390.16 122.1C390.395 122.548 390.715 122.9 391.12 123.156C391.525 123.401 391.995 123.524 392.528 123.524ZM398.479 124.5V112.98H399.823V124.5H398.479ZM405.642 124.692C404.895 124.692 404.223 124.521 403.626 124.18C403.029 123.839 402.554 123.359 402.202 122.74C401.861 122.111 401.69 121.375 401.69 120.532C401.69 119.689 401.866 118.959 402.218 118.34C402.57 117.711 403.045 117.225 403.642 116.884C404.25 116.543 404.927 116.372 405.674 116.372C406.421 116.372 407.093 116.543 407.69 116.884C408.287 117.225 408.757 117.711 409.098 118.34C409.45 118.959 409.626 119.689 409.626 120.532C409.626 121.375 409.45 122.111 409.098 122.74C408.746 123.359 408.266 123.839 407.658 124.18C407.061 124.521 406.389 124.692 405.642 124.692ZM405.642 123.54C406.101 123.54 406.527 123.428 406.922 123.204C407.317 122.98 407.637 122.644 407.882 122.196C408.127 121.748 408.25 121.193 408.25 120.532C408.25 119.871 408.127 119.316 407.882 118.868C407.647 118.42 407.333 118.084 406.938 117.86C406.543 117.636 406.122 117.524 405.674 117.524C405.215 117.524 404.789 117.636 404.394 117.86C403.999 118.084 403.679 118.42 403.434 118.868C403.189 119.316 403.066 119.871 403.066 120.532C403.066 121.193 403.189 121.748 403.434 122.196C403.679 122.644 403.994 122.98 404.378 123.204C404.773 123.428 405.194 123.54 405.642 123.54ZM414.135 124.692C413.473 124.692 412.924 124.58 412.487 124.356C412.049 124.132 411.724 123.833 411.511 123.46C411.297 123.087 411.191 122.681 411.191 122.244C411.191 121.433 411.5 120.809 412.119 120.372C412.737 119.935 413.58 119.716 414.647 119.716H416.791V119.62C416.791 118.927 416.609 118.404 416.247 118.052C415.884 117.689 415.399 117.508 414.791 117.508C414.268 117.508 413.815 117.641 413.431 117.908C413.057 118.164 412.823 118.543 412.727 119.044H411.351C411.404 118.468 411.596 117.983 411.927 117.588C412.268 117.193 412.689 116.895 413.191 116.692C413.692 116.479 414.225 116.372 414.791 116.372C415.9 116.372 416.732 116.671 417.287 117.268C417.852 117.855 418.135 118.639 418.135 119.62V124.5H416.935L416.855 123.076C416.631 123.524 416.3 123.908 415.863 124.228C415.436 124.537 414.86 124.692 414.135 124.692ZM414.343 123.556C414.855 123.556 415.292 123.423 415.655 123.156C416.028 122.889 416.311 122.543 416.503 122.116C416.695 121.689 416.791 121.241 416.791 120.772V120.756H414.759C413.969 120.756 413.409 120.895 413.079 121.172C412.759 121.439 412.599 121.775 412.599 122.18C412.599 122.596 412.748 122.932 413.047 123.188C413.356 123.433 413.788 123.556 414.343 123.556ZM423.751 124.692C422.962 124.692 422.268 124.511 421.671 124.148C421.084 123.785 420.626 123.289 420.295 122.66C419.975 122.031 419.815 121.316 419.815 120.516C419.815 119.716 419.98 119.007 420.311 118.388C420.642 117.759 421.1 117.268 421.687 116.916C422.274 116.553 422.967 116.372 423.767 116.372C424.418 116.372 424.994 116.505 425.495 116.772C425.996 117.039 426.386 117.412 426.663 117.892V112.98H428.007V124.5H426.791L426.663 123.188C426.407 123.572 426.039 123.919 425.559 124.228C425.079 124.537 424.476 124.692 423.751 124.692ZM423.895 123.524C424.428 123.524 424.898 123.401 425.303 123.156C425.719 122.9 426.039 122.548 426.263 122.1C426.498 121.652 426.615 121.129 426.615 120.532C426.615 119.935 426.498 119.412 426.263 118.964C426.039 118.516 425.719 118.169 425.303 117.924C424.898 117.668 424.428 117.54 423.895 117.54C423.372 117.54 422.903 117.668 422.487 117.924C422.082 118.169 421.762 118.516 421.527 118.964C421.303 119.412 421.191 119.935 421.191 120.532C421.191 121.129 421.303 121.652 421.527 122.1C421.762 122.548 422.082 122.9 422.487 123.156C422.903 123.401 423.372 123.524 423.895 123.524Z" fill="#1E3B5A"/>
<path opacity="0.5" d="M195.684 153.5V142.3H197.252L201.284 150.108L205.284 142.3H206.868V153.5H205.524V144.7L201.78 151.9H200.772L197.028 144.716V153.5H195.684ZM211.791 153.692C211.13 153.692 210.58 153.58 210.143 153.356C209.706 153.132 209.38 152.833 209.167 152.46C208.954 152.087 208.847 151.681 208.847 151.244C208.847 150.433 209.156 149.809 209.775 149.372C210.394 148.935 211.236 148.716 212.303 148.716H214.447V148.62C214.447 147.927 214.266 147.404 213.903 147.052C213.54 146.689 213.055 146.508 212.447 146.508C211.924 146.508 211.471 146.641 211.087 146.908C210.714 147.164 210.479 147.543 210.383 148.044H209.007C209.06 147.468 209.252 146.983 209.583 146.588C209.924 146.193 210.346 145.895 210.847 145.692C211.348 145.479 211.882 145.372 212.447 145.372C213.556 145.372 214.388 145.671 214.943 146.268C215.508 146.855 215.791 147.639 215.791 148.62V153.5H214.591L214.511 152.076C214.287 152.524 213.956 152.908 213.519 153.228C213.092 153.537 212.516 153.692 211.791 153.692ZM211.999 152.556C212.511 152.556 212.948 152.423 213.311 152.156C213.684 151.889 213.967 151.543 214.159 151.116C214.351 150.689 214.447 150.241 214.447 149.772V149.756H212.415C211.626 149.756 211.066 149.895 210.735 150.172C210.415 150.439 210.255 150.775 210.255 151.18C210.255 151.596 210.404 151.932 210.703 152.188C211.012 152.433 211.444 152.556 211.999 152.556ZM217.007 153.5L219.759 149.532L217.007 145.564H218.463L220.687 148.844L222.927 145.564H224.367L221.615 149.532L224.367 153.5H222.927L220.687 150.22L218.463 153.5H217.007ZM230.442 153.5V146.7H229.242V145.564H230.442V144.188C230.442 143.42 230.634 142.86 231.018 142.508C231.402 142.156 231.962 141.98 232.698 141.98H233.498V143.132H232.906C232.501 143.132 232.213 143.217 232.042 143.388C231.872 143.548 231.786 143.825 231.786 144.22V145.564H236.714V153.5H235.37V146.7H231.786V153.5H230.442ZM236.058 144.044C235.802 144.044 235.584 143.959 235.402 143.788C235.221 143.607 235.13 143.383 235.13 143.116C235.13 142.86 235.221 142.647 235.402 142.476C235.584 142.305 235.802 142.22 236.058 142.22C236.325 142.22 236.544 142.305 236.714 142.476C236.896 142.647 236.986 142.86 236.986 143.116C236.986 143.383 236.896 143.607 236.714 143.788C236.544 143.959 236.325 144.044 236.058 144.044ZM239.088 153.5V141.98H240.432V153.5H239.088ZM246.203 153.692C245.446 153.692 244.774 153.521 244.187 153.18C243.601 152.828 243.137 152.343 242.795 151.724C242.465 151.105 242.299 150.375 242.299 149.532C242.299 148.7 242.465 147.975 242.795 147.356C243.126 146.727 243.585 146.241 244.171 145.9C244.769 145.548 245.457 145.372 246.235 145.372C247.003 145.372 247.665 145.548 248.219 145.9C248.785 146.241 249.217 146.695 249.515 147.26C249.814 147.825 249.963 148.433 249.963 149.084C249.963 149.201 249.958 149.319 249.947 149.436C249.947 149.553 249.947 149.687 249.947 149.836H243.627C243.659 150.444 243.798 150.951 244.043 151.356C244.299 151.751 244.614 152.049 244.987 152.252C245.371 152.455 245.777 152.556 246.203 152.556C246.758 152.556 247.222 152.428 247.595 152.172C247.969 151.916 248.241 151.569 248.411 151.132H249.739C249.526 151.868 249.115 152.481 248.507 152.972C247.91 153.452 247.142 153.692 246.203 153.692ZM246.203 146.508C245.563 146.508 244.993 146.705 244.491 147.1C244.001 147.484 243.718 148.049 243.643 148.796H248.635C248.603 148.081 248.358 147.521 247.899 147.116C247.441 146.711 246.875 146.508 246.203 146.508ZM259.019 153.692C258.07 153.692 257.28 153.452 256.651 152.972C256.022 152.492 255.654 151.841 255.547 151.02H256.923C257.008 151.436 257.227 151.799 257.579 152.108C257.942 152.407 258.427 152.556 259.035 152.556C259.6 152.556 260.016 152.439 260.283 152.204C260.55 151.959 260.683 151.671 260.683 151.34C260.683 150.86 260.507 150.54 260.155 150.38C259.814 150.22 259.328 150.076 258.699 149.948C258.272 149.863 257.846 149.74 257.419 149.58C256.992 149.42 256.635 149.196 256.347 148.908C256.059 148.609 255.915 148.22 255.915 147.74C255.915 147.047 256.171 146.481 256.683 146.044C257.206 145.596 257.91 145.372 258.795 145.372C259.638 145.372 260.326 145.585 260.859 146.012C261.403 146.428 261.718 147.025 261.803 147.804H260.475C260.422 147.399 260.246 147.084 259.947 146.86C259.659 146.625 259.27 146.508 258.779 146.508C258.299 146.508 257.926 146.609 257.659 146.812C257.403 147.015 257.275 147.281 257.275 147.612C257.275 147.932 257.44 148.183 257.771 148.364C258.112 148.545 258.571 148.7 259.147 148.828C259.638 148.935 260.102 149.068 260.539 149.228C260.987 149.377 261.35 149.607 261.627 149.916C261.915 150.215 262.059 150.652 262.059 151.228C262.07 151.943 261.798 152.535 261.243 153.004C260.699 153.463 259.958 153.692 259.019 153.692ZM264.795 143.804C264.528 143.804 264.304 143.719 264.123 143.548C263.952 143.367 263.867 143.143 263.867 142.876C263.867 142.62 263.952 142.407 264.123 142.236C264.304 142.065 264.528 141.98 264.795 141.98C265.051 141.98 265.27 142.065 265.451 142.236C265.632 142.407 265.723 142.62 265.723 142.876C265.723 143.143 265.632 143.367 265.451 143.548C265.27 143.719 265.051 143.804 264.795 143.804ZM264.123 153.5V145.564H265.467V153.5H264.123ZM267.263 153.5V152.396L271.679 146.684H267.343V145.564H273.183V146.668L268.767 152.38H273.263V153.5H267.263ZM278.61 153.692C277.852 153.692 277.18 153.521 276.594 153.18C276.007 152.828 275.543 152.343 275.202 151.724C274.871 151.105 274.706 150.375 274.706 149.532C274.706 148.7 274.871 147.975 275.202 147.356C275.532 146.727 275.991 146.241 276.578 145.9C277.175 145.548 277.863 145.372 278.641 145.372C279.41 145.372 280.071 145.548 280.626 145.9C281.191 146.241 281.623 146.695 281.922 147.26C282.22 147.825 282.37 148.433 282.37 149.084C282.37 149.201 282.364 149.319 282.354 149.436C282.354 149.553 282.354 149.687 282.354 149.836H276.034C276.066 150.444 276.204 150.951 276.45 151.356C276.706 151.751 277.02 152.049 277.394 152.252C277.778 152.455 278.183 152.556 278.61 152.556C279.164 152.556 279.628 152.428 280.002 152.172C280.375 151.916 280.647 151.569 280.818 151.132H282.146C281.932 151.868 281.522 152.481 280.914 152.972C280.316 153.452 279.548 153.692 278.61 153.692ZM278.61 146.508C277.97 146.508 277.399 146.705 276.898 147.1C276.407 147.484 276.124 148.049 276.049 148.796H281.042C281.01 148.081 280.764 147.521 280.306 147.116C279.847 146.711 279.282 146.508 278.61 146.508ZM289.201 143.804C288.935 143.804 288.711 143.719 288.529 143.548C288.359 143.367 288.273 143.143 288.273 142.876C288.273 142.62 288.359 142.407 288.529 142.236C288.711 142.065 288.935 141.98 289.201 141.98C289.457 141.98 289.676 142.065 289.857 142.236C290.039 142.407 290.129 142.62 290.129 142.876C290.129 143.143 290.039 143.367 289.857 143.548C289.676 143.719 289.457 143.804 289.201 143.804ZM288.529 153.5V145.564H289.873V153.5H288.529ZM295.253 153.692C294.304 153.692 293.515 153.452 292.885 152.972C292.256 152.492 291.888 151.841 291.781 151.02H293.157C293.243 151.436 293.461 151.799 293.813 152.108C294.176 152.407 294.661 152.556 295.269 152.556C295.835 152.556 296.251 152.439 296.517 152.204C296.784 151.959 296.917 151.671 296.917 151.34C296.917 150.86 296.741 150.54 296.389 150.38C296.048 150.22 295.563 150.076 294.933 149.948C294.507 149.863 294.08 149.74 293.653 149.58C293.227 149.42 292.869 149.196 292.581 148.908C292.293 148.609 292.149 148.22 292.149 147.74C292.149 147.047 292.405 146.481 292.917 146.044C293.44 145.596 294.144 145.372 295.029 145.372C295.872 145.372 296.56 145.585 297.093 146.012C297.637 146.428 297.952 147.025 298.037 147.804H296.709C296.656 147.399 296.48 147.084 296.181 146.86C295.893 146.625 295.504 146.508 295.013 146.508C294.533 146.508 294.16 146.609 293.893 146.812C293.637 147.015 293.509 147.281 293.509 147.612C293.509 147.932 293.675 148.183 294.005 148.364C294.347 148.545 294.805 148.7 295.381 148.828C295.872 148.935 296.336 149.068 296.773 149.228C297.221 149.377 297.584 149.607 297.861 149.916C298.149 150.215 298.293 150.652 298.293 151.228C298.304 151.943 298.032 152.535 297.477 153.004C296.933 153.463 296.192 153.692 295.253 153.692ZM305.632 153.5V143.804L303.824 144.204V143.276L306.08 142.3H306.992V153.5H305.632ZM313.724 153.692C312.732 153.692 311.873 153.452 311.148 152.972C310.433 152.481 309.884 151.804 309.5 150.94C309.116 150.065 308.924 149.052 308.924 147.9C308.924 146.748 309.116 145.74 309.5 144.876C309.884 144.001 310.433 143.324 311.148 142.844C311.873 142.353 312.732 142.108 313.724 142.108C314.716 142.108 315.569 142.353 316.284 142.844C316.999 143.324 317.548 144.001 317.932 144.876C318.316 145.74 318.508 146.748 318.508 147.9C318.508 149.052 318.316 150.065 317.932 150.94C317.548 151.804 316.999 152.481 316.284 152.972C315.569 153.452 314.716 153.692 313.724 153.692ZM313.724 152.508C314.375 152.508 314.956 152.327 315.468 151.964C315.991 151.591 316.396 151.063 316.684 150.38C316.983 149.687 317.132 148.86 317.132 147.9C317.132 146.94 316.983 146.119 316.684 145.436C316.396 144.753 315.991 144.231 315.468 143.868C314.956 143.495 314.375 143.308 313.724 143.308C313.063 143.308 312.476 143.495 311.964 143.868C311.452 144.231 311.047 144.753 310.748 145.436C310.449 146.119 310.3 146.94 310.3 147.9C310.3 148.86 310.449 149.687 310.748 150.38C311.047 151.063 311.452 151.591 311.964 151.964C312.476 152.327 313.063 152.508 313.724 152.508ZM324.684 153.5V142.3H326.252L330.284 150.108L334.284 142.3H335.868V153.5H334.524V144.7L330.78 151.9H329.772L326.028 144.716V153.5H324.684ZM338.231 153.5V142.3H342.167C342.956 142.3 343.607 142.428 344.119 142.684C344.642 142.929 345.031 143.271 345.287 143.708C345.543 144.135 345.671 144.615 345.671 145.148C345.671 145.873 345.474 146.444 345.079 146.86C344.695 147.276 344.231 147.564 343.687 147.724C344.103 147.799 344.482 147.964 344.823 148.22C345.164 148.476 345.431 148.796 345.623 149.18C345.826 149.564 345.927 149.985 345.927 150.444C345.927 151.009 345.788 151.527 345.511 151.996C345.234 152.455 344.823 152.823 344.279 153.1C343.735 153.367 343.074 153.5 342.295 153.5H338.231ZM339.575 147.196H342.071C342.786 147.196 343.335 147.031 343.719 146.7C344.103 146.359 344.295 145.889 344.295 145.292C344.295 144.727 344.103 144.273 343.719 143.932C343.346 143.591 342.78 143.42 342.023 143.42H339.575V147.196ZM339.575 152.38H342.151C342.919 152.38 343.511 152.204 343.927 151.852C344.343 151.489 344.551 150.988 344.551 150.348C344.551 149.719 344.332 149.217 343.895 148.844C343.458 148.46 342.866 148.268 342.119 148.268H339.575V152.38Z" fill="#1E3B5A"/>
<rect x="0.5" y="0.5" width="541" height="210" rx="7.5" stroke="#1E3B5A" stroke-opacity="0.25" stroke-miterlimit="2.9987" stroke-dasharray="8 8"/>
<defs>
<clipPath id="clip0_34_6583">
<rect width="48" height="48" fill="white" transform="translate(247 48.5)"/>
</clipPath>
</defs>
</svg>
