<svg width="48" height="49" viewBox="0 0 48 49" fill="none" xmlns="http://www.w3.org/2000/svg">
<g clip-path="url(#clip0_34_6505)">
<path d="M30.8231 27.7512C31.0309 27.613 31.2698 27.5288 31.5183 27.5062C31.7668 27.4836 32.017 27.5233 32.2463 27.6218L41.0888 31.5837C41.3867 31.7111 41.6355 31.9315 41.7977 32.2121C41.96 32.4926 42.027 32.8181 41.9888 33.14C41.6974 35.3169 40.6254 37.314 38.972 38.7598C37.3186 40.2056 35.1964 41.0016 33 41C26.237 41 19.751 38.3134 14.9688 33.5312C10.1866 28.749 7.5 22.263 7.5 15.5C7.49832 13.3036 8.2944 11.1814 9.74018 9.52796C11.186 7.87455 13.183 6.80251 15.36 6.51121C15.6818 6.47298 16.0074 6.54 16.2879 6.70224C16.5684 6.86448 16.7889 7.11321 16.9163 7.41121L20.8781 16.2612C20.9755 16.4885 21.0151 16.7364 20.9935 16.9827C20.9719 17.229 20.8898 17.4662 20.7544 17.6731L16.7475 22.4375C16.6054 22.6519 16.5213 22.8996 16.5036 23.1563C16.4858 23.413 16.535 23.6698 16.6463 23.9018C18.1969 27.0762 21.4781 30.3181 24.6619 31.8537C24.8951 31.9645 25.1532 32.0125 25.4106 31.9931C25.6681 31.9737 25.916 31.8876 26.13 31.7431L30.8231 27.7512Z" stroke="white" stroke-width="2" stroke-linecap="round" stroke-linejoin="round"/>
</g>
<defs>
<clipPath id="clip0_34_6505">
<rect width="48" height="48" fill="white" transform="translate(0 0.5)"/>
</clipPath>
</defs>
</svg>
